<svg width="156" height="157" viewBox="0 0 156 157" fill="none" xmlns="http://www.w3.org/2000/svg">
<path d="M13.4987 32.4028C12.7488 31.6519 12.3738 30.5256 12.7488 29.3992C12.7488 28.2729 13.4987 27.522 14.2486 26.7711C25.8725 15.1321 38.9961 7.62308 54.7446 3.49313C69.743 -0.26138 85.1164 -0.26138 100.115 3.49313C115.488 7.62308 128.987 15.5075 140.611 26.7711C141.361 27.522 141.736 28.2729 142.111 29.3992C142.111 30.5256 142.111 31.6519 141.361 32.4028L130.487 49.6736C130.112 50.4245 128.987 51.1754 127.862 51.5508C126.737 51.9263 125.612 51.9263 124.862 51.5508L103.115 42.9154C102.365 42.54 101.615 41.7891 100.865 41.0382C100.115 40.2873 100.115 39.1609 100.115 38.0346L101.615 23.0166C93.7406 20.013 85.8664 18.5112 77.6172 18.8866C69.368 18.8866 61.1189 20.3884 53.6197 23.0166L55.1195 38.0346C55.1195 39.1609 55.1195 39.9118 54.3696 40.6627C53.9946 41.4136 53.2447 42.1645 52.1198 42.54L30.372 51.1754C29.6221 51.5508 28.4972 51.5508 27.3723 51.1754C26.2474 50.7999 25.4975 50.049 24.7476 49.2981L13.4987 32.4028Z" fill="#72BE44" fill-opacity="0.27"/>
<path d="M13.4987 115.002C5.99942 115.002 0 108.995 0 101.486L0 76.3309C0 68.8219 5.99942 62.8147 13.4987 62.8147C20.9979 62.8147 26.9973 68.8219 26.9973 76.3309L26.9973 101.486C26.9973 108.995 20.9979 115.002 13.4987 115.002Z" fill="#72BE44" fill-opacity="0.27"/>
<path d="M142.486 115.002C134.986 115.002 128.987 108.995 128.987 101.486V76.3309C128.987 68.8219 134.986 62.8147 142.486 62.8147C149.985 62.8147 155.984 68.8219 155.984 76.3309V101.486C156.359 108.995 149.985 115.002 142.486 115.002Z" fill="#72BE44" fill-opacity="0.27"/>
<path d="M80.6167 156.677H88.116C91.1157 156.677 93.7404 154.049 93.7404 151.045C93.7404 148.042 91.1157 145.414 88.116 145.414H80.6167C77.617 145.414 74.9923 148.042 74.9923 151.045C74.9923 154.049 77.617 156.677 80.6167 156.677Z" fill="#72BE44" fill-opacity="0.27"/>
<path d="M25.4972 129.645C25.4972 129.645 49.4948 157.053 79.1168 154.424L79.4917 146.915C79.4917 146.915 56.619 151.045 29.9967 128.894L25.4972 129.645Z" fill="#72BE44" fill-opacity="0.27"/>
</svg>
