<svg width="148" height="166" viewBox="0 0 148 166" fill="none" xmlns="http://www.w3.org/2000/svg">
<path d="M85.6845 115.52L68.472 146.81L34.7848 146.434L18.1791 114.767L35.3915 83.4773L69.2098 83.8547L85.6845 115.52ZM68.3423 146.668L85.4209 115.659L68.9435 84.2752L35.5185 83.9022L18.4399 114.911L34.9173 146.295L68.3423 146.668Z" fill="url(#paint0_linear_347_230)"/>
<path d="M86.2885 52.8461L69.076 84.1359L35.3889 83.76L18.7831 52.0928L35.9955 20.803L69.8138 21.1804L86.2885 52.8461ZM68.9476 83.8521L86.0263 52.8432L69.5489 21.4597L36.1239 21.0867L19.0452 52.0957L35.5226 83.4791L68.9476 83.8521Z" fill="url(#paint1_linear_347_230)"/>
<path d="M136.451 84.7463L119.239 116.036L85.5519 115.66L68.9461 83.993L86.1586 52.7031L119.977 53.0805L136.451 84.7463ZM119.111 115.752L136.189 84.7433L119.712 53.3599L86.2869 52.9869L69.2083 83.9959L85.6857 115.379L119.111 115.752Z" fill="url(#paint2_linear_347_230)"/>
<path d="M81.5387 124.358L58.8501 165.754L14.2834 165.261L-7.59468 123.373L15.094 81.9775L59.6607 82.4699L81.5387 124.358ZM58.0773 164.333L79.9658 124.341L58.8605 83.8728L15.7356 83.3963L-6.15282 123.389L14.9525 163.857L58.0773 164.333Z" fill="url(#paint3_linear_347_230)"/>
<path d="M82.3222 42.6368L59.6376 84.0302L15.0709 83.5328L-6.81112 41.6422L15.8735 0.248882L60.4401 0.746196L82.3222 42.6368ZM58.8647 82.6098L80.7492 42.6193L59.6401 2.14901L16.5153 1.66779L-5.36926 41.6583L15.7399 82.1286L58.8647 82.6098Z" fill="url(#paint4_linear_347_230)"/>
<path d="M147.599 84.3063L124.914 125.7L80.3474 125.202L58.4654 83.3117L81.15 41.9184L125.717 42.4157L147.599 84.3063ZM124.143 124.138L146.027 84.1476L124.918 43.6774L81.9242 43.1976L60.0397 83.1881L81.1488 123.658L124.143 124.138Z" fill="url(#paint5_linear_347_230)"/>
<path d="M37.9301 146.47C37.9478 144.635 36.5209 143.066 34.8169 143.047C33.1129 143.028 31.656 144.565 31.6384 146.4C31.6207 148.235 33.0476 149.804 34.7516 149.823C36.4556 149.842 37.9124 148.305 37.9301 146.47Z" fill="url(#paint6_linear_347_230)"/>
<path d="M20.2761 114.791C20.2869 113.662 19.3789 112.663 18.3303 112.652C17.2817 112.64 16.3546 113.618 16.3437 114.747C16.3328 115.876 17.2409 116.875 18.2895 116.886C19.3381 116.898 20.2638 116.061 20.2761 114.791Z" fill="url(#paint7_linear_347_230)"/>
<path d="M37.619 83.6435C37.6326 82.2319 36.5934 81.232 35.4137 81.2189C34.103 81.2043 33.1745 82.3233 33.1623 83.5937C33.15 84.8642 34.1878 86.0051 35.3675 86.0183C36.6783 86.0329 37.6054 85.0551 37.619 83.6435Z" fill="url(#paint8_linear_347_230)"/>
<path d="M70.65 84.0124C70.659 83.0769 69.9621 82.3106 69.0934 82.3009C68.2247 82.2912 67.5131 83.0418 67.5041 83.9773C67.4951 84.9128 68.192 85.679 69.0607 85.6887C69.9295 85.6984 70.641 84.9479 70.65 84.0124Z" fill="url(#paint9_linear_347_230)"/>
<path d="M20.3561 52.1105C20.3643 51.2635 19.717 50.4092 18.7995 50.399C18.013 50.3902 17.2198 51.0872 17.2102 52.0754C17.2021 52.9223 17.8493 53.7766 18.7669 53.7868C19.6858 53.6559 20.348 52.9574 20.3561 52.1105Z" fill="url(#paint10_linear_347_230)"/>
<path d="M38.3548 20.8287C38.3684 19.4171 37.3307 18.2761 36.0199 18.2615C34.7091 18.2469 33.6496 19.3645 33.636 20.7761C33.6224 22.1876 34.6601 23.3286 35.9709 23.3432C37.2803 23.499 38.3412 22.2403 38.3548 20.8287Z" fill="url(#paint11_linear_347_230)"/>
<path d="M72.4352 21.2094C72.4509 19.5723 71.2313 18.2313 69.7111 18.2143C68.1908 18.1974 66.9456 19.5108 66.9299 21.148C66.9141 22.7852 68.1337 24.1261 69.654 24.143C71.1742 24.16 72.4194 22.8466 72.4352 21.2094Z" fill="url(#paint12_linear_347_230)"/>
<path d="M81.359 115.472C81.3345 118.013 83.2816 120.011 85.5099 120.036C87.8694 120.063 89.7249 117.966 89.748 115.566C89.7725 113.025 87.8253 111.027 85.597 111.002C83.2376 110.976 81.3834 112.932 81.359 115.472Z" fill="url(#paint13_linear_347_230)"/>
<path d="M89.3038 52.8797C89.3215 51.0446 87.8946 49.4758 86.1906 49.4567C84.4866 49.4377 83.0298 50.9744 83.0121 52.8095C82.9944 54.6445 84.4213 56.2134 86.1253 56.2324C87.8293 56.2514 89.2862 54.7147 89.3038 52.8797Z" fill="url(#paint14_linear_347_230)"/>
<path d="M123.514 53.2618C123.535 51.0033 121.848 49.2904 119.882 49.2684C117.784 49.245 116.194 51.0625 116.173 53.1799C116.152 55.4384 117.839 57.1513 119.805 57.1733C121.772 57.1952 123.493 55.3792 123.514 53.2618Z" fill="url(#paint15_linear_347_230)"/>
<path d="M121.206 115.917C121.217 114.747 120.346 113.79 119.26 113.777C118.174 113.765 117.285 114.703 117.274 115.873C117.262 117.042 118.134 118 119.22 118.012C120.305 118.024 121.195 117.086 121.206 115.917Z" fill="url(#paint16_linear_347_230)"/>
<defs>
<linearGradient id="paint0_linear_347_230" x1="424.321" y1="-138.681" x2="-57.2488" y2="144.403" gradientUnits="userSpaceOnUse">
<stop/>
<stop offset="1" stop-color="white" stop-opacity="0.1"/>
</linearGradient>
<linearGradient id="paint1_linear_347_230" x1="424.925" y1="-201.355" x2="-56.6447" y2="81.7285" gradientUnits="userSpaceOnUse">
<stop/>
<stop offset="1" stop-color="white" stop-opacity="0.1"/>
</linearGradient>
<linearGradient id="paint2_linear_347_230" x1="475.088" y1="-169.455" x2="-6.48167" y2="113.629" gradientUnits="userSpaceOnUse">
<stop/>
<stop offset="1" stop-color="white" stop-opacity="0.1"/>
</linearGradient>
<linearGradient id="paint3_linear_347_230" x1="528.71" y1="-211.975" x2="-107.849" y2="161.472" gradientUnits="userSpaceOnUse">
<stop/>
<stop offset="1" stop-color="white" stop-opacity="0.1"/>
</linearGradient>
<linearGradient id="paint4_linear_347_230" x1="529.46" y1="-293.648" x2="-107.026" y2="79.7919" gradientUnits="userSpaceOnUse">
<stop/>
<stop offset="1" stop-color="white" stop-opacity="0.1"/>
</linearGradient>
<linearGradient id="paint5_linear_347_230" x1="594.737" y1="-251.978" x2="-41.749" y2="121.462" gradientUnits="userSpaceOnUse">
<stop/>
<stop offset="1" stop-color="white" stop-opacity="0.1"/>
</linearGradient>
<linearGradient id="paint6_linear_347_230" x1="69.5282" y1="119.058" x2="21.4894" y2="143.473" gradientUnits="userSpaceOnUse">
<stop/>
<stop offset="1" stop-color="white" stop-opacity="0.1"/>
</linearGradient>
<linearGradient id="paint7_linear_347_230" x1="40.0249" y1="97.6584" x2="10.0007" y2="112.918" gradientUnits="userSpaceOnUse">
<stop/>
<stop offset="1" stop-color="white" stop-opacity="0.1"/>
</linearGradient>
<linearGradient id="paint8_linear_347_230" x1="60.001" y1="64.2266" x2="25.9736" y2="81.521" gradientUnits="userSpaceOnUse">
<stop/>
<stop offset="1" stop-color="white" stop-opacity="0.1"/>
</linearGradient>
<linearGradient id="paint9_linear_347_230" x1="86.4491" y1="70.3064" x2="62.4298" y2="82.5143" gradientUnits="userSpaceOnUse">
<stop/>
<stop offset="1" stop-color="white" stop-opacity="0.1"/>
</linearGradient>
<linearGradient id="paint10_linear_347_230" x1="36.1552" y1="38.4042" x2="12.1357" y2="50.6119" gradientUnits="userSpaceOnUse">
<stop/>
<stop offset="1" stop-color="white" stop-opacity="0.1"/>
</linearGradient>
<linearGradient id="paint11_linear_347_230" x1="62.0537" y1="0.231061" x2="25.9927" y2="18.5199" gradientUnits="userSpaceOnUse">
<stop/>
<stop offset="1" stop-color="white" stop-opacity="0.1"/>
</linearGradient>
<linearGradient id="paint12_linear_347_230" x1="100.083" y1="-2.77611" x2="58.0496" y2="18.5875" gradientUnits="userSpaceOnUse">
<stop/>
<stop offset="1" stop-color="white" stop-opacity="0.1"/>
</linearGradient>
<linearGradient id="paint13_linear_347_230" x1="131.879" y1="79.0167" x2="67.8272" y2="111.571" gradientUnits="userSpaceOnUse">
<stop/>
<stop offset="1" stop-color="white" stop-opacity="0.1"/>
</linearGradient>
<linearGradient id="paint14_linear_347_230" x1="120.902" y1="25.4677" x2="72.8633" y2="49.8833" gradientUnits="userSpaceOnUse">
<stop/>
<stop offset="1" stop-color="white" stop-opacity="0.1"/>
</linearGradient>
<linearGradient id="paint15_linear_347_230" x1="160.378" y1="21.2813" x2="104.333" y2="49.7661" gradientUnits="userSpaceOnUse">
<stop/>
<stop offset="1" stop-color="white" stop-opacity="0.1"/>
</linearGradient>
<linearGradient id="paint16_linear_347_230" x1="140.955" y1="98.7842" x2="110.931" y2="114.044" gradientUnits="userSpaceOnUse">
<stop/>
<stop offset="1" stop-color="white" stop-opacity="0.1"/>
</linearGradient>
</defs>
</svg>
