<svg width="176" height="42" viewBox="0 0 176 42" fill="none" xmlns="http://www.w3.org/2000/svg">
<path d="M161.575 16.2067H152.322V19.7675H161.394V27.4371H152.322V36.2023H144.429V8.53711H161.485V16.2067H161.575Z" fill="#72BE44"/>
<path d="M165.113 8.53711H173.006V36.2023H165.113V8.53711Z" fill="#72BE44"/>
<path d="M147.967 8.53711H144.247L142.342 16.2067H147.967V8.53711Z" fill="#72BE44"/>
<path d="M157.674 16.2067H161.303L163.299 8.53711H157.674V16.2067Z" fill="#72BE44"/>
<path d="M25.6742 8.53711V16.2067H19.233V36.2023H11.3402V16.2067H4.89897V8.53711H25.6742Z" fill="white"/>
<path d="M42.367 36.2023L41.4598 32.6415H33.567L32.6598 36.2023H24.2227L33.0227 8.53711H42.1856L50.8041 36.2023H42.367ZM35.2 26.3415H39.7361L37.468 17.8502L35.2 26.3415Z" fill="white"/>
<path d="M62.0536 36.8414C59.0598 36.8414 56.6103 36.2023 54.6144 34.924C52.6186 33.6458 51.2577 32.0023 50.6227 29.811L57.3361 25.8849C58.2433 28.2588 59.8763 29.4458 62.3258 29.4458C64.1402 29.4458 64.9567 28.9893 64.9567 27.9849C64.9567 27.711 64.866 27.5284 64.7753 27.2545C64.6845 27.0719 64.4124 26.8892 64.0495 26.7066C63.6866 26.524 63.3237 26.4327 63.0515 26.3414C62.7794 26.2501 62.3258 26.0675 61.6 25.8849C60.8742 25.7023 60.4206 25.5197 60.0577 25.4284C54.6144 23.7849 51.8928 20.7719 51.8928 16.5719C51.8928 14.0153 52.8 11.9153 54.6144 10.2719C56.4289 8.62838 58.7876 7.80664 61.7814 7.80664C64.1402 7.80664 66.2268 8.35447 68.0412 9.45012C69.8557 10.5458 71.2165 12.1892 72.1237 14.1979L65.5918 18.2153C64.866 16.2979 63.5959 15.2936 61.7814 15.2936C61.0557 15.2936 60.6021 15.4762 60.2392 15.7501C59.8763 16.024 59.6948 16.3892 59.6948 16.7545C59.6948 17.3023 59.967 17.7588 60.6021 18.124C61.2371 18.3979 62.4165 18.8545 64.1402 19.311C65.4103 19.6762 66.499 20.0414 67.3155 20.4066C68.132 20.7719 69.0392 21.2284 69.9464 21.8675C70.8536 22.5066 71.5794 23.3284 72.033 24.3327C72.4866 25.3371 72.7588 26.524 72.7588 27.8936C72.7588 30.724 71.7608 32.9153 69.8557 34.4675C67.9505 36.0197 65.4103 36.8414 62.0536 36.8414Z" fill="white"/>
<path d="M98.7052 36.2023H89.9959L83.1917 24.3328V36.2023H75.299V8.53711H83.1917V19.5849L89.633 8.53711H98.3423L90.1773 21.9588L98.7052 36.2023Z" fill="white"/>
<path d="M78.8371 8.53711H75.1175L73.2124 16.2067H78.8371V8.53711Z" fill="white"/>
<path d="M8.34639 8.53711H4.6268L2.72165 16.2067H8.34639V8.53711Z" fill="white"/>
<path d="M21.7732 16.2067H25.4928L27.3979 8.53711H21.7732V16.2067Z" fill="white"/>
<path d="M103.695 9.54139C103.513 9.35878 103.423 9.08487 103.513 8.81096C103.513 8.53704 103.695 8.35443 103.876 8.17182C106.689 5.34139 109.864 3.5153 113.674 2.51095C117.303 1.59791 121.023 1.59791 124.652 2.51095C128.371 3.5153 131.637 5.43269 134.449 8.17182C134.631 8.35443 134.722 8.53704 134.812 8.81096C134.812 9.08487 134.812 9.35878 134.631 9.54139L132 13.7414C131.909 13.924 131.637 14.1066 131.365 14.1979C131.093 14.2892 130.821 14.2892 130.639 14.1979L125.377 12.0979C125.196 12.0066 125.014 11.824 124.833 11.6414C124.652 11.4588 124.652 11.1849 124.652 10.911L125.014 7.25878C123.109 6.52835 121.204 6.16313 119.208 6.25443C117.212 6.25443 115.216 6.61965 113.402 7.25878L113.765 10.911C113.765 11.1849 113.765 11.3675 113.583 11.5501C113.493 11.7327 113.311 11.9153 113.039 12.0066L107.777 14.1066C107.596 14.1979 107.324 14.1979 107.052 14.1066C106.779 14.0153 106.598 13.8327 106.416 13.6501L103.695 9.54139Z" fill="#72BE44"/>
<path d="M103.695 29.6288C101.88 29.6288 100.429 28.1679 100.429 26.3418V20.2245C100.429 18.3984 101.88 16.9375 103.695 16.9375C105.509 16.9375 106.961 18.3984 106.961 20.2245V26.3418C106.961 28.1679 105.509 29.6288 103.695 29.6288Z" fill="#72BE44"/>
<path d="M134.903 29.6288C133.089 29.6288 131.637 28.1679 131.637 26.3418V20.2245C131.637 18.3984 133.089 16.9375 134.903 16.9375C136.718 16.9375 138.169 18.3984 138.169 20.2245V26.3418C138.26 28.1679 136.718 29.6288 134.903 29.6288Z" fill="#72BE44"/>
<path d="M119.934 39.7635H121.748C122.474 39.7635 123.109 39.1244 123.109 38.394C123.109 37.6635 122.474 37.0244 121.748 37.0244H119.934C119.208 37.0244 118.573 37.6635 118.573 38.394C118.573 39.1244 119.208 39.7635 119.934 39.7635Z" fill="#72BE44"/>
<path d="M106.598 33.1894C106.598 33.1894 112.404 39.8547 119.571 39.2155L119.662 37.3894C119.662 37.3894 114.128 38.3938 107.687 33.0068L106.598 33.1894Z" fill="#72BE44"/>
</svg>
