<svg width="24" height="24" viewBox="0 0 24 24" fill="none" xmlns="http://www.w3.org/2000/svg">
<path d="M12 23.5C18.3513 23.5 23.5 18.3513 23.5 12C23.5 5.64873 18.3513 0.5 12 0.5C5.64873 0.5 0.5 5.64873 0.5 12C0.5 18.3513 5.64873 23.5 12 23.5Z" fill="#FFCE52"/>
<path d="M12 2.00009C18.075 2.00009 23 6.25359 23 11.5001H23.4875C23.3497 8.54612 22.0792 5.75877 19.94 3.71704C17.8007 1.67531 14.9572 0.536133 12 0.536133C9.04283 0.536133 6.19929 1.67531 4.06007 3.71704C1.92084 5.75877 0.650354 8.54612 0.512512 11.5001H1.00001C1.00001 6.25359 5.92501 2.00009 12 2.00009Z" fill="#FFE369"/>
<path d="M23 11.5C23 16.7465 18.075 21 12 21C5.925 21 1 16.7465 1 11.5H0.5125C0.5055 11.666 0.5 11.8325 0.5 12C0.5 15.05 1.7116 17.9751 3.86827 20.1317C6.02494 22.2884 8.95001 23.5 12 23.5C15.05 23.5 17.9751 22.2884 20.1317 20.1317C22.2884 17.9751 23.5 15.05 23.5 12C23.5 11.8325 23.4945 11.666 23.4875 11.5H23Z" fill="#FFB32B"/>
<path d="M18.906 4.90592C19.0671 4.74477 19.0158 4.43248 18.7916 4.2084C18.5673 3.98432 18.255 3.9333 18.094 4.09445C17.9329 4.25559 17.9842 4.56789 18.2084 4.79197C18.4327 5.01605 18.745 5.06707 18.906 4.90592Z" fill="#F6FAFD"/>
<path d="M15.5759 2.45254C15.6565 2.37187 15.6309 2.21564 15.5188 2.1036C15.4067 1.99156 15.2504 1.96613 15.1698 2.0468C15.0892 2.12747 15.1148 2.2837 15.2269 2.39574C15.339 2.50778 15.4952 2.53321 15.5759 2.45254Z" fill="#F6FAFD"/>
<path d="M17.8124 4.31206C18.1345 3.98977 18.0318 3.36503 17.5831 2.91667C17.1345 2.46831 16.5097 2.36611 16.1876 2.68841C15.8655 3.0107 15.9682 3.63544 16.4168 4.0838C16.8655 4.53216 17.4903 4.63436 17.8124 4.31206Z" fill="#F6FAFD"/>
<path d="M17 19.5C17 18.12 14.765 17 12 17C9.23501 17 7.00001 18.12 7.00001 19.5L6.95 19.565C6.20005 19.0798 5.58314 18.415 5.1553 17.6309C4.72745 16.8468 4.5022 15.9682 4.5 15.075C4.4828 14.8088 4.57136 14.5465 4.74643 14.3452C4.92151 14.1439 5.16896 14.0199 5.435 14C6.375 14.54 8.63001 14.5 12 14.5C15.37 14.5 17.625 14.54 18.56 14C18.8269 14.0187 19.0755 14.1423 19.2516 14.3437C19.4278 14.5451 19.517 14.808 19.5 15.075C19.4978 15.9682 19.2726 16.8468 18.8447 17.6309C18.4169 18.415 17.8 19.0798 17.05 19.565L17 19.5Z" fill="#273941"/>
<path d="M17 19.5L17.05 19.565C15.5482 20.5379 13.789 21.0378 12 21C10.211 21.0378 8.45182 20.5379 6.95001 19.565L7.00001 19.5C7.00001 18.12 9.23501 17 12 17C14.765 17 17 18.12 17 19.5Z" fill="#AE2D4C"/>
<path d="M8.25 4.50013C8.55929 4.49683 8.86589 4.55784 9.15035 4.67928C9.43482 4.80072 9.69095 4.97995 9.90249 5.2056C10.114 5.43125 10.2764 5.6984 10.3792 5.9901C10.4821 6.2818 10.5232 6.59169 10.5 6.90013C10.5 10.5001 6.75 12.5001 6 12.5001C5.64 12.5001 1.81 10.6501 1.515 7.30513C1.505 7.17013 1.5 7.03513 1.5 6.90013C1.45932 6.35728 1.61902 5.81836 1.94887 5.38531C2.27872 4.95226 2.75586 4.65513 3.29 4.55013C3.44092 4.51595 3.59526 4.49918 3.75 4.50013C4.875 4.50013 5.625 5.30013 6 6.50013C6.375 5.30013 7.125 4.50013 8.25 4.50013ZM22.5 6.90013C22.5 7.03346 22.495 7.16846 22.485 7.30513C22.22 10.6501 18.72 12.5001 18 12.5001C17.625 12.5001 13.5 10.5001 13.5 6.90013C13.4768 6.59169 13.5179 6.2818 13.6208 5.9901C13.7236 5.6984 13.886 5.43125 14.0975 5.2056C14.3091 4.97995 14.5652 4.80072 14.8496 4.67928C15.1341 4.55784 15.4407 4.49683 15.75 4.50013C16.875 4.50013 17.625 5.30013 18 6.50013C18.375 5.30013 19.125 4.50013 20.25 4.50013C20.4047 4.49918 20.5591 4.51595 20.71 4.55013C21.2441 4.65513 21.7213 4.95226 22.0511 5.38531C22.381 5.81836 22.5407 6.35728 22.5 6.90013Z" fill="#CF4054"/>
<path d="M5.435 15C6.375 15.54 8.63001 15.5 12 15.5C15.37 15.5 17.625 15.54 18.56 15C18.7735 15.0104 18.9774 15.0915 19.1397 15.2305C19.302 15.3696 19.4135 15.5587 19.4565 15.768C19.4855 15.5381 19.5001 15.3067 19.5 15.075C19.517 14.808 19.4278 14.5451 19.2516 14.3437C19.0755 14.1423 18.8269 14.0187 18.56 14C17.625 14.54 15.37 14.5 12 14.5C8.63001 14.5 6.375 14.54 5.435 14C5.16896 14.0199 4.92151 14.1439 4.74643 14.3452C4.57136 14.5465 4.4828 14.8088 4.5 15.075C4.49993 15.3065 4.51446 15.5378 4.5435 15.7675C4.58593 15.5588 4.69654 15.3701 4.85793 15.2312C5.01932 15.0923 5.22233 15.0109 5.435 15Z" fill="#141E21"/>
<path d="M16.7655 18.7432C15.3232 19.5932 13.674 20.0282 12 20.0002C10.326 20.0282 8.67686 19.5932 7.23451 18.7432C7.0853 18.9678 7.00389 19.2306 7.00001 19.5002L6.95001 19.5652C8.45182 20.5381 10.211 21.0379 12 21.0002C13.789 21.0379 15.5482 20.5381 17.05 19.5652L17 19.5002C16.9961 19.2306 16.9147 18.9678 16.7655 18.7432Z" fill="#8A293D"/>
<path d="M18 12.4998C17.645 12.4998 13.9345 10.7048 13.5395 7.45929C13.5155 7.60495 13.5023 7.75218 13.5 7.89979C13.5 11.4998 17.625 13.4998 18 13.4998C18.72 13.4998 22.22 11.6498 22.485 8.30479C22.495 8.16812 22.5 8.03312 22.5 7.89979C22.4997 7.74796 22.488 7.59637 22.465 7.44629C22.1125 10.6998 18.7095 12.4998 18 12.4998ZM6 12.4998C5.645 12.4998 1.9345 10.7048 1.5395 7.45929C1.51551 7.60495 1.50231 7.75218 1.5 7.89979C1.5 11.4998 5.625 13.4998 6 13.4998C6.72 13.4998 10.22 11.6498 10.485 8.30479C10.495 8.16812 10.5 8.03312 10.5 7.89979C10.4997 7.74796 10.488 7.59637 10.465 7.44629C10.1125 10.6998 6.7095 12.4998 6 12.4998Z" fill="#FBB40A"/>
<path d="M20.25 4.50013C19.125 4.50013 18.375 5.30013 18 6.50013C18.2915 5.60013 18.875 5.00013 19.75 5.00013C19.9859 4.99338 20.2207 5.03571 20.4394 5.12444C20.6581 5.21318 20.856 5.34638 21.0205 5.51561C21.185 5.68483 21.3126 5.88639 21.3951 6.10751C21.4777 6.32863 21.5134 6.56449 21.5 6.80013C21.5 9.50013 18.5835 11.0001 18 11.0001C17.72 11.0001 14.741 9.61263 14.5115 7.10363C14.5039 7.00264 14.5001 6.9014 14.5 6.80013C14.4743 6.3865 14.6022 5.97795 14.859 5.65273C15.1159 5.3275 15.4837 5.10849 15.892 5.03763C16.0096 5.01188 16.1296 4.9993 16.25 5.00013C17.125 5.00013 17.7085 5.60013 18 6.50013C17.625 5.30013 16.875 4.50013 15.75 4.50013C15.5953 4.49918 15.4409 4.51595 15.29 4.55013C14.7559 4.65513 14.2787 4.95226 13.9489 5.38531C13.619 5.81836 13.4593 6.35728 13.5 6.90013C13.5 7.03346 13.505 7.16846 13.515 7.30513C13.81 10.6501 17.64 12.5001 18 12.5001C18.75 12.5001 22.5 10.5001 22.5 6.90013C22.5232 6.59169 22.4821 6.2818 22.3792 5.9901C22.2764 5.6984 22.114 5.43125 21.9025 5.2056C21.6909 4.97995 21.4348 4.80072 21.1504 4.67928C20.8659 4.55784 20.5593 4.49683 20.25 4.50013ZM8.25 4.50013C7.125 4.50013 6.375 5.30013 6 6.50013C6.2915 5.60013 6.875 5.00013 7.75 5.00013C7.98592 4.99338 8.22068 5.03571 8.43939 5.12444C8.65809 5.21318 8.85598 5.34638 9.0205 5.51561C9.18503 5.68483 9.31261 5.88639 9.39515 6.10751C9.47769 6.32863 9.51339 6.56449 9.5 6.80013C9.5 9.50013 6.5835 11.0001 6 11.0001C5.72 11.0001 2.741 9.61263 2.5115 7.10363C2.50394 7.00264 2.50011 6.9014 2.5 6.80013C2.47432 6.3865 2.60215 5.97795 2.85901 5.65273C3.11586 5.3275 3.48368 5.10849 3.892 5.03763C4.00957 5.01188 4.12964 4.9993 4.25 5.00013C5.125 5.00013 5.7085 5.60013 6 6.50013C5.625 5.30013 4.875 4.50013 3.75 4.50013C3.59526 4.49918 3.44092 4.51595 3.29 4.55013C2.75586 4.65513 2.27872 4.95226 1.94887 5.38531C1.61902 5.81836 1.45932 6.35728 1.5 6.90013C1.5 7.03346 1.505 7.16846 1.515 7.30513C1.81 10.6501 5.64 12.5001 6 12.5001C6.75 12.5001 10.5 10.5001 10.5 6.90013C10.5232 6.59169 10.4821 6.2818 10.3792 5.9901C10.2764 5.6984 10.114 5.43125 9.90249 5.2056C9.69095 4.97995 9.43482 4.80072 9.15035 4.67928C8.86589 4.55784 8.55929 4.49683 8.25 4.50013Z" fill="#AE2D4C"/>
<path d="M21.4059 6.90543C21.5669 6.74429 21.5157 6.432 21.2914 6.20791C21.0672 5.98383 20.7549 5.93281 20.5938 6.09396C20.4328 6.25511 20.484 6.5674 20.7083 6.79148C20.9325 7.01556 21.2448 7.06658 21.4059 6.90543Z" fill="#F6FAFD"/>
<path d="M20.576 5.95303C20.6566 5.87236 20.6311 5.71613 20.519 5.60409C20.4068 5.49205 20.2506 5.46662 20.17 5.54729C20.0894 5.62796 20.1149 5.78419 20.227 5.89623C20.3391 6.00827 20.4954 6.0337 20.576 5.95303Z" fill="#F6FAFD"/>
<path d="M9.40602 6.90592C9.56706 6.74477 9.51582 6.43248 9.29158 6.2084C9.06734 5.98432 8.75501 5.9333 8.59398 6.09445C8.43294 6.25559 8.48418 6.56789 8.70842 6.79197C8.93266 7.01605 9.24499 7.06707 9.40602 6.90592Z" fill="#F6FAFD"/>
<path d="M8.57585 5.95254C8.65647 5.87187 8.63093 5.71564 8.51881 5.6036C8.40669 5.49156 8.25045 5.46613 8.16983 5.5468C8.08922 5.62747 8.11476 5.7837 8.22688 5.89574C8.33899 6.00778 8.49524 6.03321 8.57585 5.95254Z" fill="#F6FAFD"/>
</svg>
