<svg width="106" height="26" viewBox="0 0 106 26" fill="none" xmlns="http://www.w3.org/2000/svg">
<path d="M97.3123 10.0325H91.7391V12.2368H97.203V16.9847H91.7391V22.4108H86.9855V5.28467H97.2576V10.0325H97.3123Z" fill="white"/>
<path d="M99.4432 5.28467H104.197V22.4108H99.4432V5.28467Z" fill="white"/>
<path d="M89.1164 5.28467H86.8762L85.7288 10.0325H89.1164V5.28467Z" fill="white"/>
<path d="M94.9628 10.0325H97.1483L98.3504 5.28467H94.9628V10.0325Z" fill="white"/>
<path d="M15.4629 5.28467V10.0325H11.5835V22.4108H6.82988V10.0325H2.9505V5.28467H15.4629Z" fill="#16151A"/>
<path d="M25.5165 22.4108L24.9701 20.2064H20.2165L19.6701 22.4108H14.5886L19.8886 5.28467H25.4072L30.5979 22.4108H25.5165ZM21.2 16.3064H23.9319L22.566 11.0499L21.2 16.3064Z" fill="#16151A"/>
<path d="M37.3732 22.8064C35.5701 22.8064 34.0948 22.4108 32.8928 21.6195C31.6907 20.8282 30.8711 19.8108 30.4886 18.4543L34.5319 16.0238C35.0783 17.4934 36.0618 18.2282 37.5371 18.2282C38.6299 18.2282 39.1216 17.9456 39.1216 17.3238C39.1216 17.1543 39.067 17.0412 39.0124 16.8717C38.9577 16.7586 38.7938 16.6456 38.5752 16.5325C38.3567 16.4195 38.1381 16.363 37.9742 16.3064C37.8103 16.2499 37.5371 16.1369 37.1 16.0238C36.6629 15.9108 36.3897 15.7977 36.1711 15.7412C32.8928 14.7238 31.2536 12.8586 31.2536 10.2586C31.2536 8.676 31.8 7.376 32.8928 6.35861C33.9856 5.34122 35.4062 4.83252 37.2093 4.83252C38.6299 4.83252 39.8866 5.17165 40.9794 5.84991C42.0722 6.52817 42.8917 7.54556 43.4381 8.78904L39.5041 11.276C39.067 10.089 38.302 9.4673 37.2093 9.4673C36.7722 9.4673 36.499 9.58035 36.2804 9.74991C36.0618 9.91948 35.9526 10.1456 35.9526 10.3716C35.9526 10.7108 36.1165 10.9934 36.499 11.2195C36.8814 11.389 37.5917 11.6717 38.6299 11.9543C39.3948 12.1803 40.0505 12.4064 40.5423 12.6325C41.034 12.8586 41.5804 13.1412 42.1268 13.5369C42.6732 13.9325 43.1103 14.4412 43.3835 15.063C43.6567 15.6847 43.8206 16.4195 43.8206 17.2673C43.8206 19.0195 43.2196 20.376 42.0722 21.3369C40.9247 22.2977 39.3948 22.8064 37.3732 22.8064Z" fill="#16151A"/>
<path d="M59.4474 22.4108H54.202L50.1041 15.0629V22.4108H45.3505V5.28467H50.1041V12.1238L53.9835 5.28467H59.2288L54.3113 13.5934L59.4474 22.4108Z" fill="#16151A"/>
<path d="M47.4814 5.28467H45.2412L44.0938 10.0325H47.4814V5.28467Z" fill="#16151A"/>
<path d="M5.02679 5.28467H2.78658L1.63916 10.0325H5.02679V5.28467Z" fill="#16151A"/>
<path d="M13.1134 10.0325H15.3536L16.501 5.28467H13.1134V10.0325Z" fill="#16151A"/>
<path d="M62.4526 5.90646C62.3433 5.79341 62.2887 5.62385 62.3433 5.45428C62.3433 5.28472 62.4526 5.17168 62.5619 5.05863C64.2557 3.30646 66.1681 2.17602 68.4629 1.55428C70.6485 0.989067 72.8887 0.989067 75.0743 1.55428C77.3145 2.17602 79.2815 3.36298 80.9753 5.05863C81.0846 5.17168 81.1392 5.28472 81.1939 5.45428C81.1939 5.62385 81.1939 5.79341 81.0846 5.90646L79.5 8.50646C79.4454 8.6195 79.2815 8.73254 79.1176 8.78907C78.9537 8.84559 78.7897 8.84559 78.6805 8.78907L75.5114 7.48907C75.4021 7.43254 75.2928 7.3195 75.1835 7.20646C75.0743 7.09341 75.0743 6.92385 75.0743 6.75428L75.2928 4.49341C74.1454 4.04124 72.998 3.81515 71.7959 3.87168C70.5939 3.87168 69.3918 4.09776 68.299 4.49341L68.5176 6.75428C68.5176 6.92385 68.5176 7.03689 68.4083 7.14994C68.3536 7.26298 68.2444 7.37602 68.0804 7.43254L64.9114 8.73254C64.8021 8.78907 64.6382 8.78907 64.4743 8.73254C64.3103 8.67602 64.2011 8.56298 64.0918 8.44994L62.4526 5.90646Z" fill="white"/>
<path d="M62.4526 18.3411C61.3598 18.3411 60.4856 17.4368 60.4856 16.3064V12.5194C60.4856 11.389 61.3598 10.4846 62.4526 10.4846C63.5454 10.4846 64.4196 11.389 64.4196 12.5194V16.3064C64.4196 17.4368 63.5454 18.3411 62.4526 18.3411Z" fill="white"/>
<path d="M81.2485 18.3411C80.1557 18.3411 79.2815 17.4368 79.2815 16.3064V12.5194C79.2815 11.389 80.1557 10.4846 81.2485 10.4846C82.3413 10.4846 83.2155 11.389 83.2155 12.5194V16.3064C83.2701 17.4368 82.3413 18.3411 81.2485 18.3411Z" fill="white"/>
<path d="M72.233 24.6151H73.3258C73.7629 24.6151 74.1454 24.2194 74.1454 23.7673C74.1454 23.3151 73.7629 22.9194 73.3258 22.9194H72.233C71.7959 22.9194 71.4134 23.3151 71.4134 23.7673C71.4134 24.2194 71.7959 24.6151 72.233 24.6151Z" fill="white"/>
<path d="M64.201 20.5457C64.201 20.5457 67.698 24.6717 72.0145 24.2761L72.0691 23.1457C72.0691 23.1457 68.7361 23.7674 64.8567 20.4326L64.201 20.5457Z" fill="white"/>
</svg>
