<svg width="34" height="34" viewBox="0 0 34 34" fill="none" xmlns="http://www.w3.org/2000/svg">
<path d="M20.6758 17.357C21.739 17.7811 22.8469 17.9961 23.9744 17.9961C28.9178 17.9961 32.9392 13.9747 32.9392 9.03125C32.9392 4.08777 28.9179 0 23.9744 0C19.0308 0 15.0095 4.08777 15.0095 9.03125C15.0095 11.0439 15.7148 13.0117 17.0017 14.6138V18.2762L20.6758 17.357ZM26.9626 8.03516H28.9548V10.0273H26.9626V8.03516ZM22.9783 8.03516H24.9705V10.0273H22.9783V8.03516ZM18.9939 8.03516H20.9861V10.0273H18.9939V8.03516Z" fill="#16151A"/>
<path d="M23.9744 34H24.9705V26.3153L18.0066 23.933L15.0572 25.8999C12.4911 24.7326 10.3423 22.5174 9.17501 19.9513L11.1409 17.0019L8.75964 10.0273H1.29863C1.23747 10.633 1.08938 11.5262 1.06421 12.897C0.970448 17.9899 2.77225 23.0109 6.15073 26.8026C9.0758 30.0857 14.5426 34 23.9744 34Z" fill="#16151A"/>
</svg>
