<svg width="25" height="34" viewBox="0 0 25 34" fill="none" xmlns="http://www.w3.org/2000/svg">
<path d="M2.92159 9.39052C2.92159 7.29587 4.62584 5.59161 6.72075 5.59161C8.8154 5.59161 10.5199 7.29587 10.5199 9.39052V12.4522C11.5751 12.1295 12.3453 11.1467 12.3453 9.98688V2.57739C12.3453 1.15614 11.1889 0 9.76765 0H3.67384C2.25259 0 1.09619 1.15614 1.09619 2.57739V9.98688C1.09619 11.1467 1.86609 12.1295 2.92159 12.4522V9.39052Z" fill="#16151A"/>
<path d="M22.3986 0H16.3046C14.8833 0 13.7272 1.15614 13.7272 2.57739V9.98688C13.7272 11.4081 14.8833 12.5643 16.3046 12.5643H22.3986C23.8199 12.5643 24.9763 11.4081 24.9763 9.98688V2.57739C24.9763 1.15614 23.8199 0 22.3986 0Z" fill="#16151A"/>
<path d="M17.678 16.0135C16.6692 16.0135 15.8518 16.8311 15.8518 17.8397V16.9095C15.8518 15.9009 15.0342 15.0833 14.0254 15.0833C13.0168 15.0833 12.1992 15.9007 12.1992 16.9095V16.1271C12.1992 15.1678 11.4597 14.3821 10.5199 14.3072C10.4714 14.3035 10.4226 14.3009 10.373 14.3009C9.63687 14.3009 9.0029 14.737 8.71393 15.3645C8.60705 15.5966 8.54687 15.8547 8.54687 16.1271V9.3905C8.54687 8.38196 7.72925 7.56433 6.7207 7.56433C5.71216 7.56433 4.89453 8.38196 4.89453 9.3905V25.0686L4.81541 25.0585L3.6904 20.243C3.46083 19.2609 2.47848 18.6505 1.4964 18.8801C0.465026 18.8801 -0.186845 19.7019 0.0476521 20.7063L1.35217 26.2893C2.03439 30.6576 5.5656 34 5.5656 34H16.6606C18.5146 31.1803 19.5026 27.8797 19.5031 24.5049L19.5042 17.8397C19.5042 16.8311 18.6865 16.0135 17.678 16.0135Z" fill="#16151A"/>
</svg>
