<svg width="34" height="34" viewBox="0 0 34 34" fill="none" xmlns="http://www.w3.org/2000/svg">
<g clip-path="url(#clip0_84_601)">
<path d="M14.3299 18.6706C14.3299 19.6348 13.5483 20.4164 12.5842 20.4164C11.6201 20.4164 10.8385 19.6349 10.8385 18.6706C10.8385 17.7065 11.6201 16.9249 12.5842 16.9249C13.5483 16.925 14.3299 17.7066 14.3299 18.6706ZM21.4158 16.925C20.4517 16.925 19.6701 17.7065 19.6701 18.6708C19.6701 19.6349 20.4517 20.4164 21.4158 20.4164C22.3799 20.4164 23.1616 19.6349 23.1616 18.6708C23.1616 17.7066 22.38 16.925 21.4158 16.925ZM34 17.6976V21.0153C34 22.681 32.6497 24.0313 30.984 24.0313H28.7954C26.6268 30.0526 21.0891 33.6895 17 33.6895C12.9109 33.6895 7.37317 30.0526 5.20456 24.0312H3.016C1.35028 24.0312 0 22.681 0 21.0153V17.6975C0 16.5514 0.6395 15.5546 1.58111 15.0443C1.61272 10.334 2.98556 6.65531 5.66739 4.11215C8.3275 1.58959 12.1403 0.310425 17 0.310425C21.8597 0.310425 25.6725 1.58959 28.3326 4.11209C31.0144 6.65526 32.3872 10.334 32.4189 15.0443C33.3605 15.5546 34 16.5514 34 17.6976ZM27.6166 18.6817C27.6166 17.9056 27.5769 17.1765 27.5182 16.4699C26.1797 15.2453 23.7498 14.3161 20.6831 13.9708C21.0857 14.4236 21.4336 15.0192 21.6445 15.8032C19.7661 14.3234 16.0789 14.6756 13.2899 11.364C13.1301 11.1791 12.9918 11.0024 12.8722 10.8409C12.8708 10.8389 12.8693 10.8374 12.8679 10.8355L12.8682 10.8356C12.3721 10.1646 12.2029 9.76554 12.1934 10.2073C12.1116 14.0136 9.41378 16.9809 6.418 17.3995C6.39906 17.8181 6.38355 18.2408 6.38355 18.6818C6.38355 20.2906 6.64628 21.7569 7.09294 23.0783C8.77572 25.1081 11.5547 25.6813 14.0144 25.8333C14.471 25.1068 15.4955 24.5996 16.6886 24.5996C18.3062 24.5996 19.6175 25.5304 19.6175 26.6788C19.6175 27.827 18.3062 28.7578 16.6886 28.7578C15.4443 28.7578 14.384 28.2061 13.9596 27.4293C12.2406 27.3294 10.3508 27.0363 8.6665 26.2409C11.0351 29.7322 14.7069 31.5783 17 31.5783C20.6033 31.5783 27.6166 27.0264 27.6166 18.6817ZM30.6031 14.6816C30.4111 6.46209 25.7195 2.12009 17 2.12009C8.2805 2.12009 3.58894 6.46209 3.39694 14.6816H4.55733C4.98161 11.9112 5.87833 9.63281 7.23983 7.88092C9.40944 5.08937 12.6932 3.67387 17 3.67387C21.3068 3.67387 24.5906 5.08937 26.7603 7.88092C28.1217 9.63276 29.0184 11.9112 29.4427 14.6816H30.6031Z" fill="#16151A"/>
</g>
<defs>
<clipPath id="clip0_84_601">
<rect width="34" height="34" fill="white"/>
</clipPath>
</defs>
</svg>
