<svg width="34" height="34" viewBox="0 0 34 34" fill="none" xmlns="http://www.w3.org/2000/svg">
<path d="M29.0761 2.86862C28.5122 2.3035 27.7622 1.99219 26.9643 1.99219H25.6398V3.32031C25.6398 4.78497 24.4495 5.97656 22.9865 5.97656H11.0466C9.58355 5.97656 8.39329 4.78497 8.39329 3.32031V1.99219H7.06443C5.42035 1.99219 4.08133 3.3312 4.07947 4.97715L4.05078 31.0084C4.04985 31.8072 4.35997 32.5584 4.92383 33.1236C5.48782 33.6888 6.23781 34 7.03574 34H26.9355C28.5796 34 29.9187 32.661 29.9205 31.015L29.9492 4.98379C29.9502 4.18499 29.64 3.4338 29.0761 2.86862ZM17.3383 11.9531H24.4074C24.9569 11.9531 25.4024 12.3991 25.4024 12.9492C25.4024 13.4993 24.9569 13.9453 24.4074 13.9453H17.3383C16.7888 13.9453 16.3433 13.4993 16.3433 12.9492C16.3433 12.3991 16.7888 11.9531 17.3383 11.9531ZM17.3383 18.5938H24.4074C24.9569 18.5938 25.4024 19.0397 25.4024 19.5898C25.4024 20.14 24.9569 20.5859 24.4074 20.5859H17.3383C16.7888 20.5859 16.3433 20.14 16.3433 19.5898C16.3433 19.0397 16.7888 18.5938 17.3383 18.5938ZM17.3383 25.2344H24.4358C24.9854 25.2344 25.4308 25.6804 25.4308 26.2305C25.4308 26.7806 24.9854 27.2266 24.4358 27.2266H17.3383C16.7888 27.2266 16.3433 26.7806 16.3433 26.2305C16.3433 25.6804 16.7888 25.2344 17.3383 25.2344ZM8.86065 11.9924C9.24926 11.6034 9.87919 11.6034 10.2678 11.9924L10.8088 12.5341L13.1034 10.237C13.492 9.84805 14.122 9.84791 14.5105 10.237C14.899 10.6259 14.899 11.2567 14.5105 11.6457L11.5123 14.6471C11.3257 14.8339 11.0726 14.9389 10.8087 14.9389C10.5449 14.9389 10.2918 14.834 10.1052 14.6471L8.86059 13.401C8.47204 13.0121 8.47205 12.3814 8.86065 11.9924ZM8.86065 19.1402C9.24926 18.7512 9.87919 18.7512 10.2678 19.1402L10.8088 19.6818L13.1034 17.3847C13.492 16.9958 14.122 16.9958 14.5105 17.3847C14.899 17.7736 14.899 18.4044 14.5105 18.7934L11.5123 21.7949C11.3258 21.9817 11.0726 22.0867 10.8087 22.0867C10.5449 22.0867 10.2918 21.9817 10.1052 21.7949L8.86059 20.5488C8.47204 20.1599 8.47205 19.5292 8.86065 19.1402ZM8.86065 25.7808C9.24926 25.3918 9.87919 25.3918 10.2678 25.7808L10.8088 26.3224L13.1034 24.0253C13.492 23.6364 14.122 23.6364 14.5105 24.0253C14.899 24.4143 14.899 25.045 14.5105 25.434L11.5123 28.4355C11.3258 28.6223 11.0726 28.7273 10.8087 28.7273C10.5449 28.7273 10.2918 28.6224 10.1052 28.4355L8.86059 27.1894C8.47204 26.8005 8.47205 26.1698 8.86065 25.7808Z" fill="#16151A"/>
<path d="M10.3833 3.32031C10.3833 3.68707 10.6803 3.98438 11.0466 3.98438H22.9865C23.3528 3.98438 23.6498 3.68707 23.6498 3.32031V0.664062C23.6498 0.297301 23.3528 0 22.9865 0H11.0466C10.6803 0 10.3833 0.297301 10.3833 0.664062V3.32031Z" fill="#16151A"/>
</svg>
