<svg width="24" height="95" viewBox="0 0 24 95" fill="none" xmlns="http://www.w3.org/2000/svg">
<path d="M14.7851 93.5805C14.2441 94.8517 12.4861 94.8517 11.9452 93.5805C7.3473 83.7289 3.1551 73.7183 0.720919 62.9133C0.450455 61.3243 1.93801 59.7353 3.1551 60.6887C5.85974 62.9133 8.15869 65.6145 10.1872 68.7925C9.64624 46.5468 7.07683 23.5066 11.5395 1.57874C11.81 -0.0102463 14.1087 0.307541 13.9735 1.89678C11.5395 24.6192 13.4327 47.1827 13.703 69.905C16.0019 67.5216 18.3009 65.1381 20.4646 62.7546C21.4112 61.6424 23.4399 62.2779 23.3047 64.1847C22.2226 74.6717 19.2475 84.5234 14.7851 93.5805ZM13.2975 74.6717C12.4861 76.1018 10.1872 75.784 10.1872 73.5594C10.1872 73.4005 10.1872 73.2416 10.1872 73.2416C8.56438 71.3349 7.07683 69.4281 5.31881 67.5213C7.48253 74.8306 10.1872 81.6632 13.2973 88.4958C16.0019 82.2988 18.0304 75.9429 19.1123 69.1103C17.6247 70.6993 16.0019 72.2882 14.5142 74.0361C14.2441 74.6717 13.703 74.8306 13.2975 74.6717Z" fill="#72BE44"/>
</svg>
