<svg width="68" height="68" viewBox="0 0 68 68" fill="none" xmlns="http://www.w3.org/2000/svg">
<circle cx="34" cy="34" r="34" fill="white"/>
<path d="M32.5815 23.392C29.9975 23.392 24.0695 33.88 23.0435 35.818C23.5755 32.892 25.3235 28.674 25.3235 26.736C25.3235 24.912 22.3975 23.43 20.9915 23.43C20.3075 23.43 19.7375 24.038 19.7375 24.76C19.7375 28.75 17.3055 32.322 17.3055 36.578C17.3055 41.518 22.5495 43.114 23.1575 43.114C25.4375 43.114 29.5035 33.652 35.9255 27.344C36.3055 27.002 36.4955 26.622 36.4955 26.204C36.4955 24.76 33.5315 23.392 32.5815 23.392Z" fill="#16151A"/>
<path d="M43.6522 23.316C40.2702 23.316 36.9262 28.028 36.9262 30.194C36.9262 34.222 41.7522 35.666 41.7522 37.87C41.7522 38.516 40.3842 40.568 38.1422 40.568C37.9902 40.568 37.9142 40.454 37.9142 40.226C37.9142 39.618 38.4082 38.592 38.6362 38.136C38.7122 38.022 38.7502 37.908 38.7502 37.832C38.7502 37.034 35.9382 35.514 34.7982 35.514C34.4942 35.514 34.2282 35.628 34.0762 35.932C33.8482 36.312 33.2402 37.11 33.2402 38.136C33.2402 40.492 36.4322 43.836 41.5622 43.836C43.9942 43.836 47.3382 41.632 47.3382 38.25C47.3382 34.374 42.4742 33.006 42.4742 31.334C42.4742 30.232 44.4882 26.128 47.2622 26.128C47.4902 26.128 47.6042 26.242 47.6042 26.47C47.6042 28.674 44.9062 30.992 44.9062 31.334C44.9062 32.17 46.9962 33.5 48.2122 33.5C50.7202 33.5 51.6322 29.092 51.6322 28.56C51.6322 25.52 46.5782 23.316 43.6522 23.316Z" fill="#72BE44"/>
</svg>
