<svg width="61" height="61" viewBox="0 0 61 61" fill="none" xmlns="http://www.w3.org/2000/svg">
<path d="M48.7395 4.0163C48.9471 4.42822 49.1548 4.84013 49.1548 5.35503C49.1548 6.79675 48.0128 7.92953 46.5595 7.92953C45.1061 7.92953 43.9642 6.79675 43.9642 5.35503C43.9642 4.84013 44.068 4.42822 44.3794 4.0163H41.2651C41.4727 4.42822 41.6803 4.84013 41.6803 5.35503C41.6803 6.79675 40.5384 7.92953 39.085 7.92953C37.6317 7.92953 36.4898 6.79675 36.4898 5.35503C36.4898 4.84013 36.5936 4.42822 36.905 4.0163H33.7907C33.9983 4.42822 34.2059 4.84013 34.2059 5.35503C34.2059 6.79675 33.064 7.92953 31.6106 7.92953C30.1573 7.92953 29.0153 6.79675 29.0153 5.35503C29.0153 4.84013 29.1191 4.42822 29.4306 4.0163H26.3162C26.5239 4.42822 26.7315 4.84013 26.7315 5.35503C26.7315 6.79675 25.5895 7.92953 24.1362 7.92953C22.6828 7.92953 21.5409 6.79675 21.5409 5.35503C21.5409 4.84013 21.6447 4.42822 21.9561 4.0163H18.8418C19.0494 4.42822 19.257 4.84013 19.257 5.35503C19.257 6.79675 18.1151 7.92953 16.6618 7.92953C15.2084 7.92953 14.0665 6.79675 14.0665 5.35503C14.0665 4.84013 14.1703 4.42822 14.4817 4.0163H11.3674C11.575 4.42822 11.7826 4.84013 11.7826 5.35503C11.7826 6.79675 10.6407 7.92953 9.18732 7.92953C7.73396 7.92953 6.59204 6.79675 6.59204 5.35503C6.59204 4.84013 6.69584 4.42822 7.00727 4.0163H5.13867V58.1839L52.892 60.7584L50.6081 4.0163H48.7395Z" fill="#E0E0E0"/>
<path d="M48.0128 2.57452C48.2205 2.98645 48.4281 3.39837 48.4281 3.91327C48.4281 5.35499 47.2862 6.48778 45.8328 6.48778C44.3794 6.48778 43.2375 5.35499 43.2375 3.91327C43.2375 3.39837 43.3413 2.98645 43.6528 2.57452H40.5384C40.746 2.98645 40.9537 3.39837 40.9537 3.91327C40.9537 5.35499 39.8117 6.48778 38.3584 6.48778C36.905 6.48778 35.7631 5.35499 35.7631 3.91327C35.7631 3.39837 35.8669 2.98645 36.1783 2.57452H33.064C33.2716 2.98645 33.4792 3.39837 33.4792 3.91327C33.4792 5.35499 32.3373 6.48778 30.8839 6.48778C29.4306 6.48778 28.2886 5.35499 28.2886 3.91327C28.2886 3.39837 28.3925 2.98645 28.7039 2.57452H25.5895C25.7972 2.98645 26.0048 3.39837 26.0048 3.91327C26.0048 5.35499 24.8629 6.48778 23.4095 6.48778C21.9561 6.48778 20.8142 5.35499 20.8142 3.91327C20.8142 3.39837 20.918 2.98645 21.2295 2.57452H18.1151C18.3227 2.98645 18.5304 3.39837 18.5304 3.91327C18.5304 5.35499 17.3884 6.48778 15.9351 6.48778C14.4817 6.48778 13.3398 5.35499 13.3398 3.91327C13.3398 3.39837 13.4436 2.98645 13.755 2.57452H10.6407C10.8483 2.98645 11.0559 3.39837 11.0559 3.91327C11.0559 5.35499 9.914 6.48778 8.46064 6.48778C7.00728 6.48778 5.86535 5.35499 5.86535 3.91327C5.86535 3.39837 5.96916 2.98645 6.2806 2.57452H4.41199V56.7421H49.8815V2.57452H48.0128Z" fill="#F5F5F5"/>
<path d="M0.778583 59.2137C0.674771 59.2137 0.363339 46.0322 0.155717 29.8643C-0.0519056 13.6964 -0.0519056 0.514893 0.155717 0.514893C0.259528 0.514893 0.57096 13.5934 0.778583 29.8643C0.882394 46.0322 0.882394 59.2137 0.778583 59.2137Z" fill="#E0E0E0"/>
<path d="M8.04543 59.1107C7.94162 59.1107 7.63018 45.9292 7.42256 29.7613C7.21494 13.5934 7.21494 0.411957 7.42256 0.411957C7.52637 0.411957 7.83781 13.4905 8.04543 29.7613C8.25305 46.0322 8.25305 59.1107 8.04543 59.1107Z" fill="#E0E0E0"/>
<path d="M11.6789 59.1107C11.575 59.1107 11.2636 45.9292 11.056 29.7613C10.8484 13.5934 10.8484 0.411957 11.056 0.411957C11.1598 0.411957 11.4712 13.4905 11.6789 29.7613C11.8865 46.0322 11.8865 59.1107 11.6789 59.1107Z" fill="#E0E0E0"/>
<path d="M19.0495 59.1107C18.9457 59.1107 18.6342 45.9292 18.4266 29.7613C18.219 13.5934 18.219 0.411957 18.4266 0.411957C18.5304 0.411957 18.8418 13.4905 19.0495 29.7613C19.2571 46.0322 19.2571 59.1107 19.0495 59.1107Z" fill="#E0E0E0"/>
<path d="M26.5238 59.1107C26.42 59.1107 26.1086 45.9292 25.901 29.7613C25.6933 13.5934 25.6933 0.411957 25.901 0.411957C26.0048 0.411957 26.3162 13.4905 26.5238 29.7613C26.6276 46.0322 26.6276 59.1107 26.5238 59.1107Z" fill="#E0E0E0"/>
<path d="M33.8944 59.1107C33.7906 59.1107 33.4792 45.9292 33.2716 29.7613C33.0639 13.5934 33.0639 0.411957 33.2716 0.411957C33.3754 0.411957 33.6868 13.4905 33.8944 29.7613C33.9982 46.0322 33.9982 59.1107 33.8944 59.1107Z" fill="#E0E0E0"/>
<path d="M40.8499 59.1107C40.7461 59.1107 40.4346 45.9292 40.227 29.7613C40.0194 13.5934 40.0194 0.411957 40.227 0.411957C40.3308 0.411957 40.6423 13.4905 40.8499 29.7613C40.9537 46.0322 41.0575 59.1107 40.8499 59.1107Z" fill="#E0E0E0"/>
<path d="M47.9091 59.1107C47.8053 59.1107 47.4938 45.9292 47.2862 29.7613C47.0786 13.5934 47.0786 0.411957 47.2862 0.411957C47.39 0.411957 47.7015 13.4905 47.9091 29.7613C48.0129 46.0322 48.0129 59.1107 47.9091 59.1107Z" fill="#E0E0E0"/>
<path d="M15.416 59.1107C15.3122 59.1107 15.0008 45.9292 14.7932 29.7613C14.5855 13.5934 14.5855 0.411957 14.7932 0.411957C14.897 0.411957 15.2084 13.4905 15.416 29.7613C15.5199 45.9292 15.5199 59.1107 15.416 59.1107Z" fill="#E0E0E0"/>
<path d="M22.6828 59.0077C22.579 59.0077 22.2675 45.8262 22.0599 29.6583C21.8523 13.4904 21.8523 0.308929 22.0599 0.308929C22.1637 0.308929 22.4751 13.3874 22.6828 29.6583C22.7866 45.8262 22.8904 59.0077 22.6828 59.0077Z" fill="#E0E0E0"/>
<path d="M29.9496 58.9048C29.8458 58.9048 29.5344 45.7233 29.3267 29.5554C29.1191 13.3875 29.1191 0.206024 29.3267 0.206024C29.4306 0.206024 29.742 13.2845 29.9496 29.5554C30.1572 45.8263 30.1572 58.9048 29.9496 58.9048Z" fill="#E0E0E0"/>
<path d="M37.3203 58.8018C37.2165 58.8018 36.9051 45.6203 36.6975 29.4524C36.4898 13.2845 36.4898 0.102997 36.6975 0.102997C36.8013 0.102997 37.1127 13.1815 37.3203 29.4524C37.4241 45.7233 37.4241 58.8018 37.3203 58.8018Z" fill="#E0E0E0"/>
<path d="M44.2757 59.2137C44.1718 59.2137 43.8604 46.0322 43.6528 29.8643C43.4452 13.6964 43.4452 0.514893 43.6528 0.514893C43.7566 0.514893 44.068 13.5934 44.2757 29.8643C44.4833 46.0322 44.4833 59.2137 44.2757 59.2137Z" fill="#E0E0E0"/>
<path d="M51.9577 58.6988C51.8539 58.6988 51.5424 45.5173 51.3348 29.3494C51.1272 13.1815 51.1272 0 51.3348 0C51.4386 0 51.7501 13.0785 51.9577 29.3494C52.0615 45.5173 52.0615 58.6988 51.9577 58.6988Z" fill="#E0E0E0"/>
<path d="M59.7435 51.7991C59.7435 51.9021 46.4556 52.211 30.1572 52.314C13.8588 52.52 0.570923 52.52 0.570923 52.314C0.570923 52.211 13.755 51.9021 30.1572 51.7991C46.5594 51.6961 59.7435 51.6961 59.7435 51.7991Z" fill="#E0E0E0"/>
<path d="M60.055 55.5064C60.055 55.6094 46.7672 55.9184 30.4687 56.0213C14.1703 56.2273 0.882446 56.2273 0.882446 56.0213C0.882446 55.9184 14.0665 55.6094 30.4687 55.5064C46.7672 55.4035 60.055 55.4035 60.055 55.5064Z" fill="#E0E0E0"/>
<path d="M59.6397 44.5905C59.6397 44.6935 46.3519 45.0024 30.0535 45.1054C13.755 45.3114 0.467163 45.3114 0.467163 45.1054C0.467163 45.0024 13.6512 44.6935 30.0535 44.5905C46.4557 44.3846 59.6397 44.3846 59.6397 44.5905Z" fill="#E0E0E0"/>
<path d="M59.6397 37.2789C59.6397 37.3818 46.3519 37.6908 30.0535 37.7938C13.755 37.9997 0.467163 37.9997 0.467163 37.7938C0.467163 37.6908 13.6512 37.3818 30.0535 37.2789C46.3519 37.1759 59.6397 37.1759 59.6397 37.2789Z" fill="#E0E0E0"/>
<path d="M59.536 30.0703C59.536 30.1733 46.2481 30.4822 29.9497 30.5852C13.6513 30.7911 0.363403 30.7911 0.363403 30.5852C0.363403 30.4822 13.5475 30.1733 29.9497 30.0703C46.2481 29.9673 59.536 29.9673 59.536 30.0703Z" fill="#E0E0E0"/>
<path d="M59.4321 22.8617C59.4321 22.9646 46.1442 23.2736 29.8458 23.3765C13.5474 23.5825 0.259521 23.5825 0.259521 23.3765C0.259521 23.2736 13.4436 22.9646 29.8458 22.8617C46.248 22.6557 59.4321 22.6557 59.4321 22.8617Z" fill="#E0E0E0"/>
<path d="M59.4321 15.55C59.4321 15.653 46.1442 15.962 29.8458 16.0649C13.5474 16.2709 0.259521 16.2709 0.259521 16.0649C0.259521 15.962 13.4436 15.653 29.8458 15.55C46.1442 15.4471 59.4321 15.4471 59.4321 15.55Z" fill="#E0E0E0"/>
<path d="M59.3283 8.34142C59.3283 8.4444 46.0405 8.75333 29.7421 8.85631C13.4436 9.06226 0.155762 9.06226 0.155762 8.85631C0.155762 8.75333 13.3398 8.4444 29.7421 8.34142C46.0405 8.23845 59.3283 8.23845 59.3283 8.34142Z" fill="#E0E0E0"/>
<path d="M59.3283 5.45794C59.3283 5.56092 46.0405 5.86987 29.7421 5.97286C13.4436 6.17882 0.155762 6.17882 0.155762 5.97286C0.155762 5.86987 13.3398 5.56092 29.7421 5.45794C46.0405 5.25198 59.3283 5.25198 59.3283 5.45794Z" fill="#E0E0E0"/>
<path d="M59.3283 12.0487C59.3283 12.1517 46.0405 12.4607 29.7421 12.5636C13.4436 12.7696 0.155762 12.7696 0.155762 12.5636C0.155762 12.4607 13.3398 12.1517 29.7421 12.0487C46.0405 11.9458 59.3283 11.9458 59.3283 12.0487Z" fill="#E0E0E0"/>
<path d="M59.3283 19.2573C59.3283 19.3603 46.0405 19.6693 29.7421 19.7722C13.4436 19.9782 0.155762 19.9782 0.155762 19.7722C0.155762 19.6693 13.3398 19.3603 29.7421 19.2573C46.0405 19.0514 59.3283 19.0514 59.3283 19.2573Z" fill="#E0E0E0"/>
<path d="M59.3283 26.466C59.3283 26.569 46.0405 26.8779 29.7421 26.9809C13.4436 27.1869 0.155762 27.1869 0.155762 26.9809C0.155762 26.8779 13.3398 26.569 29.7421 26.466C46.0405 26.26 59.3283 26.26 59.3283 26.466Z" fill="#E0E0E0"/>
<path d="M59.3283 33.5716C59.3283 33.6746 46.0405 33.9835 29.7421 34.0865C13.4436 34.2925 0.155762 34.2925 0.155762 34.0865C0.155762 33.9835 13.3398 33.6746 29.7421 33.5716C46.0405 33.4686 59.3283 33.4686 59.3283 33.5716Z" fill="#E0E0E0"/>
<path d="M59.3283 40.7802C59.3283 40.8832 46.0405 41.1922 29.7421 41.2951C13.4436 41.5011 0.155762 41.5011 0.155762 41.2951C0.155762 41.1922 13.3398 40.8832 29.7421 40.7802C46.0405 40.6773 59.3283 40.6773 59.3283 40.7802Z" fill="#E0E0E0"/>
<path d="M59.3283 47.9888C59.3283 48.0918 46.0405 48.4007 29.7421 48.5037C13.4436 48.7097 0.155762 48.7097 0.155762 48.5037C0.155762 48.4007 13.3398 48.0918 29.7421 47.9888C46.0405 47.8858 59.3283 47.8858 59.3283 47.9888Z" fill="#E0E0E0"/>
<path d="M23.2019 10.401C23.5133 12.0487 24.24 13.5934 25.5896 14.5203C27.1467 15.5501 29.4306 15.4471 30.7801 14.2113C32.2335 12.9756 32.6487 10.813 31.8182 9.16528C30.9878 7.51759 28.9115 6.48778 27.1467 6.8997" fill="#E0E0E0"/>
<path d="M23.098 10.4011C23.2018 12.2547 24.759 13.6964 26.6276 13.5934C28.4962 13.4904 29.9496 11.9457 29.8458 10.0921C29.742 8.23847 28.1848 6.79674 26.3162 6.89972C24.4476 6.89972 22.9942 8.54741 23.098 10.4011Z" fill="#72BE44"/>
<path d="M21.1256 9.06249C21.2294 10.1953 22.1637 11.0191 23.3056 11.0191C24.4476 10.9161 25.2781 9.98931 25.2781 8.85653C25.1743 7.72375 24.2399 6.8999 23.098 6.8999C21.9561 7.00288 21.1256 8.03269 21.1256 9.06249Z" fill="#72BE44"/>
<path d="M23.098 11.0189C23.098 10.9159 23.4095 10.9159 23.8247 10.813C24.2399 10.71 24.759 10.2981 24.9666 9.68019C25.1743 9.06231 24.9666 8.44442 24.759 8.0325C24.5514 7.62058 24.3438 7.41461 24.3438 7.41461C24.3438 7.31163 24.759 7.41462 25.0704 7.82654C25.3819 8.23847 25.6933 8.95932 25.3819 9.78316C25.0704 10.607 24.3438 11.0189 23.8247 11.1219C23.3056 11.2249 22.9942 11.0189 23.098 11.0189Z" fill="#263238"/>
<path d="M24.7591 7.72354C24.8629 7.62057 25.3819 7.72355 25.901 7.62058C26.5239 7.5176 26.8353 7.10567 27.0429 7.20865C27.1467 7.31163 26.8353 7.92951 26.1086 8.13547C25.1743 8.34143 24.6553 7.82652 24.7591 7.72354Z" fill="#263238"/>
<path d="M25.2781 12.8725C25.1743 12.8725 24.9666 12.2547 24.4476 11.7398C23.9285 11.2249 23.3057 11.1219 23.3057 11.0189C23.3057 10.9159 24.1362 10.71 24.8628 11.4308C25.5895 12.0487 25.3819 12.8725 25.2781 12.8725Z" fill="#263238"/>
<path d="M43.9642 21.9348C43.9642 22.0378 36.6973 22.2437 27.7696 22.2437C18.8418 22.2437 11.575 22.1408 11.575 21.9348C11.575 21.7288 18.8418 21.6259 27.7696 21.6259C36.6973 21.6259 43.9642 21.7288 43.9642 21.9348Z" fill="#263238"/>
<path d="M43.9642 25.2302C43.9642 25.3331 36.6973 25.5391 27.7696 25.5391C18.8418 25.5391 11.575 25.4361 11.575 25.2302C11.575 25.1272 18.8418 24.9212 27.7696 24.9212C36.6973 24.9212 43.9642 25.1272 43.9642 25.2302Z" fill="#263238"/>
<path d="M43.9642 28.5256C43.9642 28.6285 36.6973 28.8345 27.7696 28.8345C18.8418 28.8345 11.575 28.7315 11.575 28.5256C11.575 28.4226 18.8418 28.2166 27.7696 28.2166C36.6973 28.3196 43.9642 28.4226 43.9642 28.5256Z" fill="#263238"/>
<path d="M43.9642 31.9239C43.9642 32.0269 36.6973 32.2329 27.7696 32.2329C18.8418 32.2329 11.575 32.1299 11.575 31.9239C11.575 31.821 18.8418 31.615 27.7696 31.615C36.6973 31.615 43.9642 31.821 43.9642 31.9239Z" fill="#263238"/>
<path d="M43.9642 35.2193C43.9642 35.3223 36.6973 35.5282 27.7696 35.5282C18.8418 35.5282 11.575 35.4252 11.575 35.2193C11.575 35.1163 18.8418 34.9104 27.7696 34.9104C36.6973 35.0133 43.9642 35.1163 43.9642 35.2193Z" fill="#263238"/>
<path d="M43.9642 38.6176C43.9642 38.7206 36.6973 38.9265 27.7696 38.9265C18.8418 38.9265 11.575 38.8236 11.575 38.6176C11.575 38.4116 18.8418 38.3087 27.7696 38.3087C36.6973 38.3087 43.9642 38.4116 43.9642 38.6176Z" fill="#263238"/>
<path d="M43.9642 41.913C43.9642 42.0159 36.6973 42.2219 27.7696 42.2219C18.8418 42.2219 11.575 42.1189 11.575 41.913C11.575 41.707 18.8418 41.604 27.7696 41.604C36.6973 41.707 43.9642 41.81 43.9642 41.913Z" fill="#263238"/>
</svg>
