<svg width="58" height="34" viewBox="0 0 58 34" fill="none" xmlns="http://www.w3.org/2000/svg">
<path d="M1.21545 4.06916L1.29141 6.10376C1.59527 5.80234 1.97508 5.65162 2.43087 5.65162C3.41839 5.57627 4.254 6.32983 4.254 7.30945C4.32997 8.28907 3.57033 9.11799 2.5828 9.19334C2.12702 9.19334 1.7472 9.04263 1.44335 8.81656L1.5193 10.8512C1.82316 10.5497 2.20298 10.399 2.65876 10.399C3.64629 10.3237 4.4819 11.0772 4.4819 12.0568C4.55786 13.0365 3.79821 13.8654 2.81069 13.9407C2.3549 13.9407 1.97508 13.79 1.67123 13.564L1.7472 15.5986C2.05105 15.2971 2.43087 15.1464 2.88665 15.1464C3.87418 15.0711 4.70978 15.8246 4.70978 16.8042C4.78574 17.7839 4.02611 18.6128 3.03858 18.6881C2.5828 18.6881 2.20298 18.5374 1.89912 18.3113L1.97509 20.3459C2.27895 20.0445 2.65876 19.8938 3.11455 19.8938C4.10208 19.8185 4.93767 20.572 4.93767 21.5516C5.01364 22.5313 4.254 23.3602 3.26647 23.4355C2.81069 23.4355 2.43087 23.2848 2.12702 23.0587L2.20298 25.0933C2.50684 24.7919 2.88666 24.6412 3.34244 24.6412C4.32997 24.5659 5.16556 25.3194 5.16556 26.299C5.24153 27.2787 4.48189 28.1076 3.49437 28.1829C3.03858 28.1829 2.65876 28.0322 2.35491 27.8061L2.43087 29.8407C2.73472 29.5393 3.11454 29.3886 3.57032 29.3886C4.55785 29.3132 5.39346 30.0668 5.39346 31.0464C5.46942 32.0261 4.70979 32.855 3.72226 32.9303C3.26648 32.9303 2.88666 32.7796 2.5828 32.5535L2.65876 33.8346L57.4286 32.5535L54.6179 0.904236L1.21545 4.06916Z" fill="#EBEBEB"/>
<path d="M0 2.7128L0.0759683 4.74739C0.379823 4.44597 0.759642 4.29527 1.21542 4.29527C2.20295 4.21991 3.03855 4.97346 3.03855 5.95308C3.11451 6.9327 2.35488 7.76161 1.36735 7.83697C0.911567 7.83697 0.531748 7.68626 0.227893 7.46019L0.303862 9.49479C0.607717 9.19337 0.987535 9.04265 1.44332 9.04265C2.43085 8.96729 3.26644 9.72086 3.26644 10.7005C3.34241 11.6801 2.58277 12.509 1.59524 12.5844C1.13946 12.5844 0.759642 12.4337 0.455787 12.2076L0.531744 14.2422C0.835598 13.9408 1.21542 13.79 1.6712 13.79C2.65873 13.7147 3.49433 14.4682 3.49433 15.4479C3.5703 16.4275 2.81066 17.2564 1.82314 17.3317C1.36735 17.3317 0.987535 17.181 0.68368 16.955L0.759637 18.9896C1.06349 18.6882 1.44331 18.5374 1.89909 18.5374C2.88662 18.4621 3.72223 19.2156 3.72223 20.1953C3.79819 21.1749 3.03855 22.0038 2.05102 22.0791C1.59524 22.0791 1.21542 21.9284 0.911562 21.7024L0.98753 23.737C1.29139 23.4355 1.6712 23.2848 2.12699 23.2848C3.11451 23.2095 3.95011 23.963 3.95011 24.9426C3.95011 25.9223 3.26644 26.7512 2.27891 26.8265C1.82313 26.8265 1.44331 26.6758 1.13946 26.4498L1.21542 28.4843C1.51928 28.1829 1.8991 28.0322 2.35488 28.0322C3.34241 27.9569 4.178 28.7104 4.178 29.69C4.25397 30.6697 3.49433 31.4986 2.5068 31.5739C2.05102 31.5739 1.6712 31.4232 1.36735 31.1971L1.44332 32.4782L56.2132 29.5393L54.6179 0L0 2.7128Z" fill="#F5F5F5"/>
<path d="M55.0737 5.65161C55.0737 5.72697 42.8435 6.48053 27.7267 7.30945C12.6099 8.13836 0.379797 8.66585 0.303833 8.59049C0.303833 8.51514 12.534 7.76158 27.6508 6.93267C42.8435 6.10375 55.0737 5.57625 55.0737 5.65161Z" fill="#E0E0E0"/>
<path d="M55.3776 10.399C55.3776 10.4744 43.1474 11.228 28.0306 12.0569C12.9139 12.8858 0.683691 13.4133 0.607727 13.3379C0.607727 13.2626 12.8379 12.509 27.9547 11.6801C43.0715 10.8512 55.3016 10.3237 55.3776 10.399Z" fill="#E0E0E0"/>
<path d="M55.6055 15.1465C55.6055 15.2218 43.3753 15.9754 28.2585 16.8043C13.1417 17.6332 0.911596 18.1606 0.835632 18.0853C0.835632 18.0099 13.0658 17.2564 28.1826 16.4275C43.2993 15.5986 55.6055 15.0711 55.6055 15.1465Z" fill="#E0E0E0"/>
<path d="M55.8333 19.8938C55.8333 19.9692 43.6032 20.7227 28.4864 21.5516C13.3696 22.3806 1.13944 22.908 1.06348 22.8327C1.06348 22.7573 13.2936 22.0038 28.4104 21.1749C43.6032 20.346 55.8333 19.7431 55.8333 19.8938Z" fill="#E0E0E0"/>
<path d="M56.1372 24.5659C56.1372 24.6412 43.907 25.3948 28.7902 26.2237C13.6734 27.0526 1.44327 27.5801 1.36731 27.5047C1.36731 27.4294 13.5975 26.6758 28.7143 25.8469C43.831 25.018 56.1372 24.4905 56.1372 24.5659Z" fill="#E0E0E0"/>
<path d="M7.79249 2.35227L7.41321 2.37241L9.00842 31.9456L9.38771 31.9255L7.79249 2.35227Z" fill="#72BE44"/>
<path d="M14.2052 31.6493C14.1293 31.6493 13.6735 25.018 13.2177 16.8796C12.7619 8.74124 12.534 2.10995 12.61 2.10995C12.6859 2.10995 13.1417 8.74124 13.5975 16.8796C14.0533 25.018 14.2812 31.6493 14.2052 31.6493Z" fill="#E0E0E0"/>
<path d="M4.4059 32.1768C4.32994 32.1768 3.87415 25.5455 3.41837 17.4071C2.96259 9.26873 2.7347 2.63745 2.81066 2.63745C2.88662 2.63745 3.34241 9.26873 3.79819 17.4071C4.25397 25.5455 4.55783 32.1768 4.4059 32.1768Z" fill="#E0E0E0"/>
<path d="M19.5227 31.3478C19.4467 31.3478 18.9909 24.7166 18.5351 16.5782C18.0793 8.43978 17.8515 1.8085 17.9274 1.8085C18.0034 1.8085 18.4592 8.43978 18.915 16.5782C19.3707 24.7166 19.5986 31.3478 19.5227 31.3478Z" fill="#E0E0E0"/>
<path d="M24.8402 31.0465C24.7642 31.0465 24.3084 24.4152 23.8526 16.2768C23.3969 8.13839 23.169 1.50711 23.2449 1.50711C23.3209 1.50711 23.7767 8.13839 24.2325 16.2768C24.6882 24.4152 24.9921 31.0465 24.8402 31.0465Z" fill="#E0E0E0"/>
<path d="M30.2335 30.745C30.1576 30.745 29.7018 24.1137 29.246 15.9753C28.7902 7.83695 28.5623 1.20566 28.6383 1.20566C28.7143 1.20566 29.17 7.83695 29.6258 15.9753C30.0056 24.1891 30.3095 30.745 30.2335 30.745Z" fill="#E0E0E0"/>
<path d="M35.551 30.5189C35.4751 30.5189 35.0193 23.8877 34.5635 15.7493C34.1077 7.61089 33.8798 0.979614 33.9558 0.979614C34.0318 0.979614 34.4876 7.61089 34.9433 15.7493C35.3991 23.8877 35.627 30.5189 35.551 30.5189Z" fill="#E0E0E0"/>
<path d="M40.8685 30.2175C40.7925 30.2175 40.3367 23.5862 39.881 15.4479C39.4252 7.30946 39.1973 0.678192 39.2732 0.678192C39.3492 0.678192 39.805 7.30946 40.2608 15.4479C40.7166 23.5862 41.0204 30.2175 40.8685 30.2175Z" fill="#E0E0E0"/>
<path d="M46.1859 29.9161C46.11 29.9161 45.6542 23.2848 45.1984 15.1464C44.7426 7.00805 44.5147 0.37677 44.5907 0.37677C44.6667 0.37677 45.1225 7.00805 45.5782 15.1464C46.034 23.2848 46.3379 29.9161 46.1859 29.9161Z" fill="#E0E0E0"/>
<path d="M51.5794 29.6147C51.5034 29.6147 51.0476 22.9834 50.5918 14.845C50.136 6.70666 49.9082 0.0753784 49.9841 0.0753784C50.0601 0.0753784 50.5159 6.70666 50.9716 14.845C51.4274 22.9834 51.6553 29.6147 51.5794 29.6147Z" fill="#E0E0E0"/>
<path d="M50.8957 11.7554C50.8957 11.7554 50.7438 11.7554 50.5159 11.8308C50.212 11.8308 49.8322 11.9061 49.3764 11.9061C48.313 11.9815 46.9456 12.0569 45.2744 12.2076C41.7801 12.4336 36.9943 12.6597 31.6769 12.9611C26.3594 13.1872 21.5737 13.4133 18.0794 13.564C14.585 13.6393 12.4581 13.7147 12.4581 13.564C14.5091 13.4886 21.5737 13.1118 31.6769 12.5844C36.9943 12.3583 41.7041 12.1322 45.2744 11.9815C46.9456 11.9061 48.3889 11.8308 49.3764 11.8308C49.8322 11.8308 50.212 11.8308 50.5159 11.8308C50.7438 11.7554 50.8957 11.7554 50.8957 11.7554Z" fill="#263238"/>
<path d="M51.9592 17.181C51.9592 17.2564 43.1474 17.7839 32.2086 18.3113C21.2699 18.8388 12.4581 19.1403 12.4581 18.9896C12.4581 18.9142 21.2699 18.3867 32.2086 17.8592C43.1474 17.3317 51.9592 17.0303 51.9592 17.181Z" fill="#263238"/>
<path d="M52.5669 21.8531C52.5669 21.9284 43.7551 22.4559 32.8164 22.9834C21.8776 23.5109 13.0658 23.8123 13.0658 23.6616C13.0658 23.5863 21.8776 23.0588 32.8164 22.5313C43.7551 22.0791 52.5669 21.7777 52.5669 21.8531Z" fill="#263238"/>
<path d="M6.15308 5.8777C6.38097 7.0834 6.91271 8.21373 7.90024 8.89193C9.03969 9.64549 10.7109 9.57013 11.6984 8.66586C12.7619 7.7616 13.0658 6.17913 12.458 4.97344C11.8503 3.76774 10.3311 3.01419 9.03969 3.31561" fill="#E0E0E0"/>
<path d="M6.00114 5.80238C6.07711 7.15877 7.21656 8.21375 8.58391 8.13839C9.95126 8.06303 11.0148 6.93271 10.9388 5.57631C10.8628 4.21991 9.72337 3.16492 8.35602 3.24028C6.98867 3.31564 5.92518 4.44598 6.00114 5.80238Z" fill="#455A64"/>
<path d="M4.55786 4.8981C4.63383 5.72701 5.31751 6.32986 6.15311 6.32986C6.98871 6.25451 7.59642 5.5763 7.59642 4.74739C7.52046 3.91848 6.83679 3.31564 6.00118 3.31564C5.16558 3.391 4.55786 4.06919 4.55786 4.8981Z" fill="#455A64"/>
<path d="M6.00119 6.25449C6.00119 6.17914 6.22908 6.17914 6.53293 6.10378C6.83678 6.02843 7.21659 5.727 7.36852 5.27486C7.52044 4.82272 7.36852 4.37059 7.21659 4.06916C7.06467 3.76774 6.91274 3.61702 6.91274 3.61702C6.91274 3.54167 7.21659 3.61703 7.44448 3.91845C7.67237 4.21988 7.90026 4.74737 7.67237 5.35022C7.44449 5.95307 6.91274 6.2545 6.53293 6.32985C6.15311 6.48057 5.92522 6.32985 6.00119 6.25449Z" fill="#263238"/>
<path d="M7.2166 3.91848C7.29256 3.84312 7.67238 3.91847 8.0522 3.84311C8.50798 3.76776 8.73587 3.46633 8.8878 3.54169C8.96376 3.61704 8.73587 4.06919 8.20413 4.2199C7.59642 4.37062 7.14063 3.99383 7.2166 3.91848Z" fill="#263238"/>
<path d="M7.59637 7.68624C7.52041 7.68624 7.36848 7.23411 6.98866 6.85734C6.60885 6.48057 6.15308 6.40522 6.15308 6.32986C6.15308 6.25451 6.76078 6.10379 7.29252 6.63127C7.82426 7.0834 7.74829 7.68624 7.59637 7.68624Z" fill="#263238"/>
<path d="M48.2369 4.06919C48.4648 5.27488 48.9966 6.40521 49.9841 7.08341C51.1235 7.83696 52.7947 7.7616 53.7823 6.85734C54.8457 5.95307 55.1496 4.37062 54.5419 3.16493C53.9342 1.95925 52.4149 1.20569 51.1235 1.50711" fill="#E0E0E0"/>
<path d="M53.0227 3.39097C53.0987 4.67202 52.1111 5.80235 50.7438 5.87771C49.4524 5.95306 48.313 4.97344 48.237 3.61704C48.161 2.336 49.1486 1.20567 50.5159 1.13031C51.8073 1.13031 52.9467 2.10993 53.0227 3.39097Z" fill="#72BE44"/>
<path d="M54.3141 2.41137C54.39 3.16492 53.7823 3.84311 52.9467 3.91847C52.1871 3.99382 51.5034 3.39098 51.4274 2.56207C51.3515 1.80852 51.9592 1.13033 52.7948 1.05497C53.6304 0.979619 54.3141 1.58246 54.3141 2.41137Z" fill="#72BE44"/>
<path d="M53.0986 3.84313C53.0986 3.91848 52.9467 4.06919 52.4909 3.99384C52.1111 3.99384 51.5794 3.76778 51.2755 3.16493C51.0477 2.63744 51.1236 2.03459 51.3515 1.73316C51.5794 1.43174 51.8073 1.35638 51.8073 1.35638C51.8073 1.43174 51.6554 1.58245 51.5794 1.88387C51.4275 2.1853 51.4275 2.63743 51.5794 3.01421C51.8073 3.39099 52.1871 3.61706 52.4909 3.69242C52.8707 3.84313 53.0986 3.76777 53.0986 3.84313Z" fill="#263238"/>
<path d="M51.6554 1.73317C51.7313 1.80852 51.3515 2.18528 50.8198 2.10993C50.212 2.03457 49.9842 1.58246 50.0601 1.50711C50.1361 1.43176 50.4399 1.65782 50.8198 1.73317C51.2755 1.80852 51.6554 1.65782 51.6554 1.73317Z" fill="#263238"/>
<path d="M51.7313 5.35021C51.6554 5.35021 51.5035 4.82274 51.9592 4.21991C52.415 3.69243 53.0227 3.76779 53.0227 3.84314C53.0227 3.91849 52.5669 4.0692 52.2631 4.44597C51.8833 4.89809 51.8073 5.35021 51.7313 5.35021Z" fill="#263238"/>
</svg>
