<svg width="44" height="45" viewBox="0 0 44 45" fill="none" xmlns="http://www.w3.org/2000/svg">
<path d="M35.665 2.9389C35.8169 3.24033 35.9688 3.54174 35.9688 3.91852C35.9688 4.97349 35.1332 5.8024 34.0697 5.8024C33.0062 5.8024 32.1706 4.97349 32.1706 3.91852C32.1706 3.54174 32.2466 3.24033 32.4745 2.9389H30.1956C30.3475 3.24033 30.4994 3.54174 30.4994 3.91852C30.4994 4.97349 29.6638 5.8024 28.6003 5.8024C27.5368 5.8024 26.7012 4.97349 26.7012 3.91852C26.7012 3.54174 26.7772 3.24033 27.0051 2.9389H24.7262C24.8781 3.24033 25.03 3.54174 25.03 3.91852C25.03 4.97349 24.1944 5.8024 23.1309 5.8024C22.0674 5.8024 21.2318 4.97349 21.2318 3.91852C21.2318 3.54174 21.3078 3.24033 21.5357 2.9389H19.2568C19.4087 3.24033 19.5606 3.54174 19.5606 3.91852C19.5606 4.97349 18.725 5.8024 17.6616 5.8024C16.5981 5.8024 15.7625 4.97349 15.7625 3.91852C15.7625 3.54174 15.8384 3.24033 16.0663 2.9389H13.7874C13.9393 3.24033 14.0913 3.54174 14.0913 3.91852C14.0913 4.97349 13.2557 5.8024 12.1922 5.8024C11.1287 5.8024 10.2931 4.97349 10.2931 3.91852C10.2931 3.54174 10.369 3.24033 10.5969 2.9389H8.31802C8.46994 3.24033 8.62187 3.54174 8.62187 3.91852C8.62187 4.97349 7.78627 5.8024 6.72278 5.8024C5.65929 5.8024 4.82369 4.97349 4.82369 3.91852C4.82369 3.54174 4.89965 3.24033 5.12754 2.9389H3.76019V42.5758L38.7035 44.4597L37.0323 2.9389H35.665Z" fill="#E0E0E0"/>
<path d="M35.1332 1.88391C35.2851 2.18533 35.4371 2.48676 35.4371 2.86353C35.4371 3.91851 34.6015 4.74742 33.538 4.74742C32.4745 4.74742 31.6389 3.91851 31.6389 2.86353C31.6389 2.48676 31.7149 2.18533 31.9427 1.88391H29.6638C29.8158 2.18533 29.9677 2.48676 29.9677 2.86353C29.9677 3.91851 29.1321 4.74742 28.0686 4.74742C27.0051 4.74742 26.1695 3.91851 26.1695 2.86353C26.1695 2.48676 26.2455 2.18533 26.4734 1.88391H24.1944C24.3464 2.18533 24.4983 2.48676 24.4983 2.86353C24.4983 3.91851 23.6627 4.74742 22.5992 4.74742C21.5357 4.74742 20.7001 3.91851 20.7001 2.86353C20.7001 2.48676 20.7761 2.18533 21.004 1.88391H18.7251C18.877 2.18533 19.0289 2.48676 19.0289 2.86353C19.0289 3.91851 18.1933 4.74742 17.1298 4.74742C16.0663 4.74742 15.2307 3.91851 15.2307 2.86353C15.2307 2.48676 15.3067 2.18533 15.5346 1.88391H13.2557C13.4076 2.18533 13.5595 2.48676 13.5595 2.86353C13.5595 3.91851 12.7239 4.74742 11.6604 4.74742C10.5969 4.74742 9.76134 3.91851 9.76134 2.86353C9.76134 2.48676 9.8373 2.18533 10.0652 1.88391H7.78628C7.93821 2.18533 8.09013 2.48676 8.09013 2.86353C8.09013 3.91851 7.25453 4.74742 6.19104 4.74742C5.12755 4.74742 4.29195 3.91851 4.29195 2.86353C4.29195 2.48676 4.36791 2.18533 4.5958 1.88391H3.22845V41.5209H36.5006V1.88391H35.1332Z" fill="#F5F5F5"/>
<path d="M0.569725 43.3294C0.493761 43.3294 0.265872 33.6839 0.113945 21.8531C-0.0379817 10.0223 -0.0379817 0.376785 0.113945 0.376785C0.189909 0.376785 0.417798 9.94693 0.569725 21.8531C0.645688 33.6839 0.645688 43.3294 0.569725 43.3294Z" fill="#E0E0E0"/>
<path d="M5.88717 43.254C5.81121 43.254 5.58332 33.6085 5.43139 21.7777C5.27946 9.94694 5.27946 0.301437 5.43139 0.301437C5.50735 0.301437 5.73524 9.87158 5.88717 21.7777C6.0391 33.6839 6.0391 43.254 5.88717 43.254Z" fill="#E0E0E0"/>
<path d="M8.54592 43.254C8.46996 43.254 8.24207 33.6085 8.09014 21.7777C7.93821 9.94694 7.93821 0.301437 8.09014 0.301437C8.1661 0.301437 8.39399 9.87158 8.54592 21.7777C8.69785 33.6839 8.69785 43.254 8.54592 43.254Z" fill="#E0E0E0"/>
<path d="M13.9394 43.254C13.8634 43.254 13.6355 33.6085 13.4836 21.7777C13.3316 9.94694 13.3316 0.301437 13.4836 0.301437C13.5595 0.301437 13.7874 9.87158 13.9394 21.7777C14.0913 33.6839 14.0913 43.254 13.9394 43.254Z" fill="#E0E0E0"/>
<path d="M19.4087 43.254C19.3327 43.254 19.1049 33.6085 18.9529 21.7777C18.801 9.94694 18.801 0.301437 18.9529 0.301437C19.0289 0.301437 19.2568 9.87158 19.4087 21.7777C19.4847 33.6839 19.4847 43.254 19.4087 43.254Z" fill="#E0E0E0"/>
<path d="M24.8022 43.254C24.7262 43.254 24.4983 33.6085 24.3464 21.7777C24.1944 9.94694 24.1944 0.301437 24.3464 0.301437C24.4223 0.301437 24.6502 9.87158 24.8022 21.7777C24.8781 33.6839 24.8781 43.254 24.8022 43.254Z" fill="#E0E0E0"/>
<path d="M29.8918 43.254C29.8158 43.254 29.5879 33.6085 29.436 21.7777C29.284 9.94694 29.284 0.301437 29.436 0.301437C29.5119 0.301437 29.7398 9.87158 29.8918 21.7777C29.9677 33.6839 30.0437 43.254 29.8918 43.254Z" fill="#E0E0E0"/>
<path d="M35.0573 43.254C34.9813 43.254 34.7534 33.6085 34.6015 21.7777C34.4496 9.94694 34.4496 0.301437 34.6015 0.301437C34.6775 0.301437 34.9054 9.87158 35.0573 21.7777C35.1332 33.6839 35.1332 43.254 35.0573 43.254Z" fill="#E0E0E0"/>
<path d="M11.2806 43.254C11.2046 43.254 10.9767 33.6085 10.8248 21.7777C10.6729 9.94694 10.6729 0.301437 10.8248 0.301437C10.9008 0.301437 11.1287 9.87158 11.2806 21.7777C11.3566 33.6085 11.3566 43.254 11.2806 43.254Z" fill="#E0E0E0"/>
<path d="M16.5981 43.1787C16.5221 43.1787 16.2942 33.5332 16.1423 21.7024C15.9903 9.87158 15.9903 0.226074 16.1423 0.226074C16.2182 0.226074 16.4461 9.79622 16.5981 21.7024C16.674 33.5332 16.75 43.1787 16.5981 43.1787Z" fill="#E0E0E0"/>
<path d="M21.9156 43.1033C21.8396 43.1033 21.6117 33.4578 21.4598 21.627C21.3078 9.79624 21.3078 0.150742 21.4598 0.150742C21.5357 0.150742 21.7636 9.72088 21.9156 21.627C22.0675 33.5332 22.0675 43.1033 21.9156 43.1033Z" fill="#E0E0E0"/>
<path d="M27.309 43.028C27.233 43.028 27.0051 33.3825 26.8532 21.5517C26.7013 9.72088 26.7013 0.0753784 26.8532 0.0753784C26.9292 0.0753784 27.1571 9.64552 27.309 21.5517C27.3849 33.4578 27.3849 43.028 27.309 43.028Z" fill="#E0E0E0"/>
<path d="M32.3985 43.3294C32.3226 43.3294 32.0947 33.6839 31.9427 21.8531C31.7908 10.0223 31.7908 0.376785 31.9427 0.376785C32.0187 0.376785 32.2466 9.94693 32.3985 21.8531C32.5505 33.6839 32.5505 43.3294 32.3985 43.3294Z" fill="#E0E0E0"/>
<path d="M38.0199 42.9526C37.9439 42.9526 37.716 33.3071 37.5641 21.4763C37.4122 9.6455 37.4122 0 37.5641 0C37.64 0 37.8679 9.57014 38.0199 21.4763C38.0958 33.3071 38.0958 42.9526 38.0199 42.9526Z" fill="#E0E0E0"/>
<path d="M43.7171 37.9038C43.7171 37.9792 33.9938 38.2052 22.0674 38.2806C10.1411 38.4313 0.417786 38.4313 0.417786 38.2806C0.417786 38.2052 10.0652 37.9792 22.0674 37.9038C34.0697 37.8285 43.7171 37.8285 43.7171 37.9038Z" fill="#E0E0E0"/>
<path d="M43.945 40.6166C43.945 40.692 34.2217 40.918 22.2954 40.9934C10.369 41.1441 0.645691 41.1441 0.645691 40.9934C0.645691 40.918 10.2931 40.692 22.2954 40.6166C34.2217 40.5413 43.945 40.5413 43.945 40.6166Z" fill="#E0E0E0"/>
<path d="M43.6412 32.6289C43.6412 32.7043 33.9178 32.9303 21.9915 33.0057C10.0652 33.1564 0.341858 33.1564 0.341858 33.0057C0.341858 32.9303 9.98925 32.7043 21.9915 32.6289C33.9938 32.4782 43.6412 32.4782 43.6412 32.6289Z" fill="#E0E0E0"/>
<path d="M43.6412 27.2787C43.6412 27.354 33.9178 27.5801 21.9915 27.6555C10.0652 27.8062 0.341858 27.8062 0.341858 27.6555C0.341858 27.5801 9.98925 27.354 21.9915 27.2787C33.9178 27.2033 43.6412 27.2033 43.6412 27.2787Z" fill="#E0E0E0"/>
<path d="M43.5652 22.0038C43.5652 22.0792 33.8418 22.3052 21.9155 22.3806C9.98922 22.5313 0.265869 22.5313 0.265869 22.3806C0.265869 22.3052 9.91326 22.0792 21.9155 22.0038C33.8418 21.9285 43.5652 21.9285 43.5652 22.0038Z" fill="#E0E0E0"/>
<path d="M43.4892 16.7289C43.4892 16.8043 33.7658 17.0304 21.8395 17.1057C9.91324 17.2564 0.18988 17.2564 0.18988 17.1057C0.18988 17.0304 9.83727 16.8043 21.8395 16.7289C33.8418 16.5782 43.4892 16.5782 43.4892 16.7289Z" fill="#E0E0E0"/>
<path d="M43.4892 11.3787C43.4892 11.454 33.7658 11.6801 21.8395 11.7555C9.91324 11.9062 0.18988 11.9062 0.18988 11.7555C0.18988 11.6801 9.83727 11.454 21.8395 11.3787C33.7658 11.3033 43.4892 11.3033 43.4892 11.3787Z" fill="#E0E0E0"/>
<path d="M43.4133 6.10382C43.4133 6.17917 33.6899 6.40523 21.7636 6.48058C9.83731 6.63129 0.113953 6.63129 0.113953 6.48058C0.113953 6.40523 9.76134 6.17917 21.7636 6.10382C33.6899 6.02846 43.4133 6.02846 43.4133 6.10382Z" fill="#E0E0E0"/>
<path d="M43.4133 3.99383C43.4133 4.06919 33.6899 4.29526 21.7636 4.37062C9.83731 4.52134 0.113953 4.52134 0.113953 4.37062C0.113953 4.29526 9.76134 4.06919 21.7636 3.99383C33.6899 3.84312 43.4133 3.84312 43.4133 3.99383Z" fill="#E0E0E0"/>
<path d="M43.4133 8.81662C43.4133 8.89197 33.6899 9.11804 21.7636 9.19339C9.83731 9.3441 0.113953 9.3441 0.113953 9.19339C0.113953 9.11804 9.76134 8.89197 21.7636 8.81662C33.6899 8.74126 43.4133 8.74126 43.4133 8.81662Z" fill="#E0E0E0"/>
<path d="M43.4133 14.0915C43.4133 14.1668 33.6899 14.3929 21.7636 14.4683C9.83731 14.619 0.113953 14.619 0.113953 14.4683C0.113953 14.3929 9.76134 14.1668 21.7636 14.0915C33.6899 13.9408 43.4133 13.9408 43.4133 14.0915Z" fill="#E0E0E0"/>
<path d="M43.4133 19.3664C43.4133 19.4417 33.6899 19.6678 21.7636 19.7432C9.83731 19.8939 0.113953 19.8939 0.113953 19.7432C0.113953 19.6678 9.76134 19.4417 21.7636 19.3664C33.6899 19.2157 43.4133 19.2157 43.4133 19.3664Z" fill="#E0E0E0"/>
<path d="M43.4133 24.5659C43.4133 24.6413 33.6899 24.8673 21.7636 24.9427C9.83731 25.0934 0.113953 25.0934 0.113953 24.9427C0.113953 24.8673 9.76134 24.6413 21.7636 24.5659C33.6899 24.4905 43.4133 24.4905 43.4133 24.5659Z" fill="#E0E0E0"/>
<path d="M43.4133 29.8408C43.4133 29.9161 33.6899 30.1422 21.7636 30.2176C9.83731 30.3683 0.113953 30.3683 0.113953 30.2176C0.113953 30.1422 9.76134 29.9161 21.7636 29.8408C33.6899 29.7654 43.4133 29.7654 43.4133 29.8408Z" fill="#E0E0E0"/>
<path d="M43.4133 35.1157C43.4133 35.191 33.6899 35.4171 21.7636 35.4925C9.83731 35.6432 0.113953 35.6432 0.113953 35.4925C0.113953 35.4171 9.76134 35.191 21.7636 35.1157C33.6899 35.0403 43.4133 35.0403 43.4133 35.1157Z" fill="#E0E0E0"/>
<path d="M16.9779 7.61092C17.2058 8.81661 17.7375 9.94694 18.7251 10.6251C19.8645 11.3787 21.5357 11.3033 22.5232 10.3991C23.5867 9.49481 23.8906 7.91235 23.2829 6.70666C22.6752 5.50097 21.1559 4.7474 19.8645 5.04883" fill="#E0E0E0"/>
<path d="M16.9019 7.61093C16.9779 8.96732 18.1173 10.0223 19.4847 9.94693C20.852 9.87158 21.9155 8.74125 21.8395 7.38486C21.7636 6.02847 20.6241 4.97349 19.2568 5.04884C17.8894 5.04884 16.8259 6.25453 16.9019 7.61093Z" fill="#72BE44"/>
<path d="M15.4586 6.63144C15.5346 7.46035 16.2183 8.06319 17.0539 8.06319C17.8895 7.98783 18.4972 7.30964 18.4972 6.48074C18.4212 5.65183 17.7375 5.04898 16.9019 5.04898C16.0663 5.12434 15.4586 5.87789 15.4586 6.63144Z" fill="#72BE44"/>
<path d="M16.9019 8.06304C16.9019 7.98769 17.1298 7.98769 17.4337 7.91233C17.7376 7.83698 18.1174 7.53556 18.2693 7.08343C18.4212 6.6313 18.2693 6.17916 18.1174 5.87774C17.9654 5.57632 17.8135 5.4256 17.8135 5.4256C17.8135 5.35025 18.1174 5.42561 18.3453 5.72703C18.5732 6.02845 18.801 6.55593 18.5732 7.15878C18.3453 7.76162 17.8135 8.06305 17.4337 8.1384C17.0539 8.21376 16.826 8.06304 16.9019 8.06304Z" fill="#263238"/>
<path d="M18.1174 5.65167C18.1933 5.57632 18.5732 5.65168 18.953 5.57633C19.4088 5.50097 19.6366 5.19955 19.7886 5.2749C19.8645 5.35026 19.6366 5.80239 19.1049 5.9531C18.4212 6.10381 18.0414 5.72703 18.1174 5.65167Z" fill="#263238"/>
<path d="M18.4971 9.41945C18.4212 9.41945 18.2693 8.96732 17.8894 8.59054C17.5096 8.21376 17.0538 8.1384 17.0538 8.06304C17.0538 7.98769 17.6615 7.83698 18.1933 8.36447C18.725 8.81661 18.5731 9.41945 18.4971 9.41945Z" fill="#263238"/>
<path d="M32.1707 16.0507C32.1707 16.1261 26.8532 16.2768 20.3203 16.2768C13.7874 16.2768 8.46997 16.2014 8.46997 16.0507C8.46997 15.9 13.7874 15.8247 20.3203 15.8247C26.8532 15.8247 32.1707 15.9 32.1707 16.0507Z" fill="#263238"/>
<path d="M32.1707 18.4621C32.1707 18.5374 26.8532 18.6882 20.3203 18.6882C13.7874 18.6882 8.46997 18.6128 8.46997 18.4621C8.46997 18.3867 13.7874 18.236 20.3203 18.236C26.8532 18.236 32.1707 18.3867 32.1707 18.4621Z" fill="#263238"/>
<path d="M32.1707 20.8735C32.1707 20.9488 26.8532 21.0995 20.3203 21.0995C13.7874 21.0995 8.46997 21.0242 8.46997 20.8735C8.46997 20.7981 13.7874 20.6474 20.3203 20.6474C26.8532 20.7228 32.1707 20.7981 32.1707 20.8735Z" fill="#263238"/>
<path d="M32.1707 23.3602C32.1707 23.4356 26.8532 23.5863 20.3203 23.5863C13.7874 23.5863 8.46997 23.5109 8.46997 23.3602C8.46997 23.2849 13.7874 23.1342 20.3203 23.1342C26.8532 23.1342 32.1707 23.2849 32.1707 23.3602Z" fill="#263238"/>
<path d="M32.1707 25.7716C32.1707 25.8469 26.8532 25.9977 20.3203 25.9977C13.7874 25.9977 8.46997 25.9223 8.46997 25.7716C8.46997 25.6962 13.7874 25.5455 20.3203 25.5455C26.8532 25.6209 32.1707 25.6962 32.1707 25.7716Z" fill="#263238"/>
<path d="M32.1707 28.2583C32.1707 28.3337 26.8532 28.4844 20.3203 28.4844C13.7874 28.4844 8.46997 28.409 8.46997 28.2583C8.46997 28.1076 13.7874 28.0322 20.3203 28.0322C26.8532 28.0322 32.1707 28.1076 32.1707 28.2583Z" fill="#263238"/>
<path d="M32.1707 30.6697C32.1707 30.745 26.8532 30.8958 20.3203 30.8958C13.7874 30.8958 8.46997 30.8204 8.46997 30.6697C8.46997 30.519 13.7874 30.4436 20.3203 30.4436C26.8532 30.519 32.1707 30.5943 32.1707 30.6697Z" fill="#263238"/>
</svg>
