<svg width="52" height="24" viewBox="0 0 52 24" fill="none" xmlns="http://www.w3.org/2000/svg">
<path d="M0 16.9202L51.2574 23.3948L50.6482 4.74799L0 16.9202Z" fill="#E0E0E0"/>
<path d="M50.6268 5.17059L1.37 1.09329L0.00957418 17.2661L49.2664 21.3434L50.6268 5.17059Z" fill="#EDEDED"/>
<path d="M43.6863 10.014C43.6863 10.1003 35.4189 9.58233 25.2371 8.71906C15.0552 7.85578 6.78792 7.07883 6.87495 6.9925C6.87495 6.90617 15.1423 7.42414 25.3241 8.28742C35.4189 9.15069 43.6863 9.92764 43.6863 10.014Z" fill="#455A64"/>
<path d="M43.5992 14.244C43.5992 14.3303 35.3319 13.8124 25.1501 12.9491C14.9682 12.0858 6.70089 11.3089 6.78791 11.2225C6.78791 11.1362 15.0552 11.6542 25.2371 12.5175C35.3319 13.3807 43.5992 14.1577 43.5992 14.244Z" fill="#455A64"/>
<path d="M15.9254 0L34.9838 1.55388L34.0265 2.41716L35.3319 3.53942L33.7654 4.23004L35.1578 5.43862L15.1422 3.7984L16.4476 2.76247L15.7514 1.64022L16.8827 1.12225L15.9254 0Z" fill="#EBEBEB"/>
</svg>
